# Blender v2.79 (sub 0) OBJ File: 'AC_Unit.blend'
# www.blender.org
mtllib AC_Unit.mtl
o AC_Unit_Cube.108
v -0.142617 0.000000 0.078921
v -0.142617 0.000000 -0.078921
v 0.142617 0.000000 0.078921
v 0.142617 0.000000 -0.078921
v 0.016059 0.088363 0.057948
v 0.016059 0.088363 0.098234
v -0.005672 0.035901 0.057948
v -0.005672 0.035901 0.098234
v -0.058134 0.014170 0.057948
v -0.058134 0.014170 0.098234
v -0.110597 0.035901 0.057948
v -0.110597 0.035901 0.098234
v -0.132327 0.088363 0.057948
v -0.132327 0.088363 0.098234
v -0.110597 0.140826 0.057948
v -0.110597 0.140826 0.098234
v -0.058134 0.162556 0.057948
v -0.058134 0.162556 0.098234
v -0.005672 0.140826 0.057948
v -0.005672 0.140826 0.098234
v -0.118745 0.176727 0.078921
v -0.142617 0.161936 0.078921
v -0.142617 0.161936 -0.078921
v -0.118745 0.176727 -0.078921
v 0.142617 0.161936 0.078921
v 0.118745 0.176727 0.078921
v 0.118745 0.176727 -0.078921
v 0.142617 0.161936 -0.078921
vt 0.170488 0.205224
vt 0.122662 0.205224
vt 0.122662 0.143971
vt 0.170488 0.143970
vt 0.113047 0.143970
vt 0.113047 0.200098
vt 0.055606 0.200098
vt 0.055606 0.143970
vt 0.223123 0.205224
vt 0.170488 0.205224
vt 0.170488 0.143970
vt 0.223122 0.143970
vt 0.113047 0.143970
vt 0.113047 0.082717
vt 0.170488 0.082717
vt 0.170488 0.143970
vt 0.060413 0.143970
vt 0.055606 0.138844
vt 0.055606 0.087843
vt 0.060413 0.082717
vt 0.687221 0.657798
vt 0.665613 0.657798
vt 0.665613 0.630998
vt 0.687221 0.630998
vt 0.708829 0.630998
vt 0.730438 0.630998
vt 0.730438 0.647602
vt 0.708829 0.647602
vt 0.730438 0.664207
vt 0.708829 0.664207
vt 0.644004 0.630998
vt 0.665613 0.630998
vt 0.665613 0.657798
vt 0.644004 0.657798
vt 0.665613 0.684598
vt 0.644004 0.684598
vt 0.708829 0.664207
vt 0.687221 0.664207
vt 0.687221 0.647602
vt 0.708829 0.647602
vt 0.601344 0.689540
vt 0.601344 0.661871
vt 0.613839 0.637622
vt 0.631510 0.630998
vt 0.644004 0.645878
vt 0.644004 0.673546
vt 0.631510 0.697795
vt 0.613839 0.704420
vt 0.687221 0.630998
vt 0.708829 0.630998
vt 0.687221 0.684598
vt 0.665613 0.684598
vt 0.558684 0.661871
vt 0.571179 0.637622
vt 0.588850 0.630998
vt 0.601344 0.645878
vt 0.601344 0.673546
vt 0.588849 0.697795
vt 0.571179 0.704420
vt 0.558684 0.689540
vt 0.117854 0.205224
vt 0.117854 0.143971
vt 0.113047 0.205224
vt 0.055606 0.205224
vt 0.223122 0.082717
vt 0.227930 0.087843
vt 0.227930 0.138844
vt 0.223122 0.143970
vn 0.0000 1.0000 0.0000
vn 1.0000 0.0000 0.0000
vn -1.0000 0.0000 0.0000
vn 0.0000 -1.0000 0.0000
vn 0.0000 0.0000 -1.0000
vn 0.9239 -0.3827 -0.0000
vn 0.3827 -0.9239 -0.0000
vn -0.3827 -0.9239 0.0000
vn -0.9239 -0.3827 0.0000
vn -0.9239 0.3827 0.0000
vn -0.3827 0.9239 -0.0000
vn 0.0000 -0.0000 1.0000
vn 0.3827 0.9239 -0.0000
vn 0.9239 0.3827 -0.0000
vn -0.5267 0.8501 0.0000
vn 0.5267 0.8501 0.0000
usemtl Texture
s off
f 27/1/1 24/2/1 21/3/1 26/4/1
f 4/5/2 28/6/2 25/7/2 3/8/2
f 1/9/3 22/10/3 23/11/3 2/12/3
f 2/13/4 4/14/4 3/15/4 1/16/4
f 2/13/5 23/17/5 24/18/5 27/19/5 28/20/5 4/14/5
f 5/21/6 6/22/6 8/23/6 7/24/6
f 7/25/7 8/26/7 10/27/7 9/28/7
f 9/28/8 10/27/8 12/29/8 11/30/8
f 11/31/9 12/32/9 14/33/9 13/34/9
f 13/34/10 14/33/10 16/35/10 15/36/10
f 15/37/11 16/38/11 18/39/11 17/40/11
f 8/41/12 6/42/12 20/43/12 18/44/12 16/45/12 14/46/12 12/47/12 10/48/12
f 17/40/13 18/39/13 20/49/13 19/50/13
f 19/51/14 20/52/14 6/22/14 5/21/14
f 5/53/5 7/54/5 9/55/5 11/56/5 13/57/5 15/58/5 17/59/5 19/60/5
f 21/3/15 24/2/15 23/61/15 22/62/15
f 27/63/16 26/64/16 25/7/16 28/6/16
f 3/15/12 25/65/12 26/66/12 21/67/12 22/68/12 1/16/12
