# Blender v2.79 (sub 0) OBJ File: 'Bricks_Single.blend'
# www.blender.org
mtllib Bricks_Single.mtl
o Bricks_Single_Cube.177
v -0.119380 -0.073867 0.068213
v -0.119380 0.069763 0.068213
v -0.119380 -0.067857 -0.068213
v -0.119380 0.064224 -0.068213
v 0.119380 -0.073867 0.068213
v 0.119380 0.065905 0.068213
v 0.119380 -0.073867 -0.068213
v 0.119380 0.073867 -0.068213
vt 0.349496 0.856781
vt 0.349496 0.866247
vt 0.340339 0.865882
vt 0.340339 0.857177
vt 0.367860 0.866506
vt 0.367860 0.856769
vt 0.377016 0.857294
vt 0.377016 0.866506
vt 0.330329 0.809562
vt 0.339710 0.809562
vt 0.339969 0.825298
vt 0.330329 0.825298
vt 0.358903 0.825297
vt 0.358914 0.809563
vt 0.368067 0.809562
vt 0.368067 0.825298
vt 0.358686 0.856769
vt 0.358691 0.841034
vt 0.367844 0.841033
vt 0.367847 0.856769
vn -1.0000 0.0000 0.0000
vn 1.0000 0.0000 0.0000
vn 0.0000 0.0000 1.0000
vn -0.0126 -0.9997 -0.0220
vn -0.0121 0.9999 0.0089
usemtl Texture
s off
f 1/1/1 2/2/1 4/3/1 3/4/1
f 7/5/2 8/6/2 6/7/2 5/8/2
f 5/9/3 6/10/3 2/11/3 1/12/3
f 3/13/4 7/14/4 5/15/4 1/16/4
f 8/17/5 4/18/5 2/19/5 6/20/5
