# Blender v2.79 (sub 0) OBJ File: 'Bricks_Large.blend'
# www.blender.org
mtllib Bricks_Large.mtl
o Bricks_Large_Cube.061
v -1.031011 -0.215903 0.068213
v -1.031011 -0.079478 0.068213
v -1.031011 -0.215018 -0.068213
v -1.031011 -0.079478 -0.068213
v -0.792250 -0.215903 0.068213
v -0.792250 -0.079478 0.068213
v -0.792250 -0.215903 -0.068213
v -0.792250 -0.079478 -0.068213
v -0.912889 -0.067876 0.068213
v -0.912889 0.069204 0.068213
v -0.912889 -0.065229 -0.068213
v -0.912889 0.076321 -0.068213
v -0.674128 -0.070298 0.068213
v -0.674128 0.064682 0.068213
v -0.674128 -0.071743 -0.068213
v -0.674128 0.076757 -0.068213
v -1.031011 0.068168 0.068213
v -1.031011 0.210264 0.068213
v -1.031011 0.075981 -0.068213
v -1.031011 0.207552 -0.068213
v -0.792250 0.077137 0.068213
v -0.792250 0.204594 0.068213
v -0.792250 0.084866 -0.068213
v -0.792250 0.204870 -0.068213
v -0.781193 -0.215903 0.068213
v -0.781193 -0.079478 0.068213
v -0.781193 -0.208376 -0.068213
v -0.781193 -0.078962 -0.068213
v -0.542432 -0.215903 0.068213
v -0.542432 -0.079478 0.068213
v -0.542432 -0.215903 -0.068213
v -0.542432 -0.079478 -0.068213
v -0.663071 -0.068419 0.068213
v -0.663071 0.064682 0.068213
v -0.663071 -0.069605 -0.068213
v -0.663071 0.064682 -0.068213
v -0.424310 -0.069755 0.068213
v -0.424310 0.070248 0.068213
v -0.424310 -0.055269 -0.068213
v -0.424310 0.064682 -0.068213
v -0.781193 0.068168 0.068213
v -0.781193 0.211799 0.068213
v -0.781193 0.074179 -0.068213
v -0.781193 0.206260 -0.068213
v -0.542432 0.068168 0.068213
v -0.542432 0.207940 0.068213
v -0.542432 0.068168 -0.068213
v -0.542432 0.215903 -0.068213
v -0.531375 -0.213378 0.068213
v -0.531375 -0.075155 0.068213
v -0.531375 -0.206656 -0.068213
v -0.531375 -0.076766 -0.068213
v -0.292614 -0.215519 0.068213
v -0.292614 -0.079478 0.068213
v -0.292614 -0.215903 -0.068213
v -0.292614 -0.068085 -0.068213
v -0.413253 -0.071743 0.068213
v -0.413253 0.066970 0.068213
v -0.413253 -0.071743 -0.068213
v -0.413253 0.070573 -0.068213
v -0.174492 -0.071743 0.068213
v -0.174492 0.064682 0.068213
v -0.174492 -0.061749 -0.068213
v -0.174492 0.064682 -0.068213
v -0.531375 0.068168 0.068213
v -0.531375 0.210448 0.068213
v -0.531375 0.076631 -0.068213
v -0.531375 0.204594 -0.068213
v -0.292614 0.068168 0.068213
v -0.292614 0.204594 0.068213
v -0.292614 0.068168 -0.068213
v -0.292614 0.211398 -0.068213
v -0.281557 -0.215809 0.068213
v -0.281557 -0.072662 0.068213
v -0.281557 -0.206390 -0.068213
v -0.281557 -0.079478 -0.068213
v -0.042797 -0.215497 0.068213
v -0.042797 -0.072765 0.068213
v -0.042797 -0.215903 -0.068213
v -0.042797 -0.079478 -0.068213
v -0.163435 -0.071743 0.068213
v -0.163435 0.064682 0.068213
v -0.163435 -0.069558 -0.068213
v -0.163435 0.064682 -0.068213
v 0.075325 -0.071743 0.068213
v 0.075325 0.066492 0.068213
v 0.075325 -0.061279 -0.068213
v 0.075325 0.077767 -0.068213
v -0.281557 0.068168 0.068213
v -0.281557 0.204594 0.068213
v -0.281557 0.068168 -0.068213
v -0.281557 0.204594 -0.068213
v -0.042797 0.075725 0.068213
v -0.042797 0.210053 0.068213
v -0.042797 0.068168 -0.068213
v -0.042797 0.204594 -0.068213
v -0.031739 -0.215903 0.068213
v -0.031739 -0.073634 0.068213
v -0.031739 -0.215903 -0.068213
v -0.031739 -0.069944 -0.068213
v 0.207021 -0.212851 0.068213
v 0.207021 -0.079478 0.068213
v 0.207021 -0.205912 -0.068213
v 0.207021 -0.079478 -0.068213
v 0.086383 -0.059148 0.068213
v 0.086383 0.064682 0.068213
v 0.086383 -0.062926 -0.068213
v 0.086383 0.076348 -0.068213
v 0.325143 -0.067456 0.068213
v 0.325143 0.064682 0.068213
v 0.325143 -0.071743 -0.068213
v 0.325143 0.074051 -0.068213
v -0.031739 0.068168 0.068213
v -0.031739 0.206726 0.068213
v -0.031739 0.068168 -0.068213
v -0.031739 0.213156 -0.068213
v 0.207021 0.068168 0.068213
v 0.207021 0.204594 0.068213
v 0.207021 0.081482 -0.068213
v 0.207021 0.209145 -0.068213
v 0.218078 -0.209945 0.068213
v 0.218078 -0.079296 0.068213
v 0.218078 -0.215903 -0.068213
v 0.218078 -0.061313 -0.068213
v 0.456839 -0.215903 0.068213
v 0.456839 -0.079478 0.068213
v 0.456839 -0.215903 -0.068213
v 0.456839 -0.071863 -0.068213
v 0.336201 -0.071743 0.068213
v 0.336201 0.064682 0.068213
v 0.336201 -0.068402 -0.068213
v 0.336201 0.064682 -0.068213
v 0.574961 -0.069000 0.068213
v 0.574961 0.064682 0.068213
v 0.574961 -0.071743 -0.068213
v 0.574961 0.064682 -0.068213
v 0.218078 0.077989 0.068213
v 0.218078 0.204594 0.068213
v 0.218078 0.068168 -0.068213
v 0.218078 0.204594 -0.068213
v 0.456839 0.068168 0.068213
v 0.456839 0.204594 0.068213
v 0.456839 0.068168 -0.068213
v 0.456839 0.204594 -0.068213
v 0.467896 -0.213994 0.068213
v 0.467896 -0.070855 0.068213
v 0.467896 -0.203298 -0.068213
v 0.467896 -0.079478 -0.068213
v 0.706657 -0.215903 0.068213
v 0.706657 -0.076402 0.068213
v 0.706657 -0.215178 -0.068213
v 0.706657 -0.079478 -0.068213
v 0.586018 -0.071743 0.068213
v 0.586018 0.064682 0.068213
v 0.586018 -0.071743 -0.068213
v 0.586018 0.078690 -0.068213
v 0.824779 -0.062332 0.068213
v 0.824779 0.065230 0.068213
v 0.824779 -0.065855 -0.068213
v 0.824779 0.067787 -0.068213
v 0.467896 0.070677 0.068213
v 0.467896 0.210424 0.068213
v 0.467896 0.076301 -0.068213
v 0.467896 0.208674 -0.068213
v 0.706657 0.080056 0.068213
v 0.706657 0.204594 0.068213
v 0.706657 0.076083 -0.068213
v 0.706657 0.204594 -0.068213
v 0.717714 -0.209163 0.068213
v 0.717714 -0.073848 0.068213
v 0.717714 -0.215903 -0.068213
v 0.717714 -0.075335 -0.068213
v 0.956475 -0.215903 0.068213
v 0.956475 -0.075072 0.068213
v 0.956475 -0.214649 -0.068213
v 0.956475 -0.073279 -0.068213
v 0.835836 -0.071743 0.068213
v 0.835836 0.064682 0.068213
v 0.835836 -0.071743 -0.039532
v 0.835836 0.064682 -0.039532
v 1.031011 -0.070358 0.068213
v 1.031011 0.064682 0.068213
v 1.031011 -0.070627 -0.039532
v 1.031011 0.066615 -0.039532
v 0.717714 0.068168 0.068213
v 0.717714 0.204594 0.068213
v 0.717714 0.073818 -0.068213
v 0.717714 0.210246 -0.068213
v 0.956475 0.068168 0.068213
v 0.956475 0.204594 0.068213
v 0.956475 0.068168 -0.068213
v 0.956475 0.207628 -0.068213
vt 0.407281 0.893930
vt 0.407281 0.899768
vt 0.401628 0.899768
vt 0.401628 0.893968
vt 0.367692 0.891992
vt 0.373345 0.891992
vt 0.373345 0.897831
vt 0.367692 0.897831
vt 0.379020 0.830681
vt 0.384674 0.830681
vt 0.384674 0.840899
vt 0.379020 0.840899
vt 0.338403 0.871662
vt 0.338403 0.881880
vt 0.332750 0.881880
vt 0.332750 0.871662
vt 0.401628 0.881778
vt 0.401628 0.887645
vt 0.395974 0.887949
vt 0.395974 0.881892
vt 0.390321 0.881778
vt 0.390321 0.888133
vt 0.384667 0.887617
vt 0.384667 0.881840
vt 0.396057 0.820464
vt 0.396057 0.830681
vt 0.390404 0.830682
vt 0.390404 0.820464
vt 0.338430 0.851227
vt 0.332837 0.851168
vt 0.332750 0.840949
vt 0.338430 0.841008
vt 0.384676 0.851118
vt 0.384679 0.840900
vt 0.390331 0.840899
vt 0.390331 0.851117
vt 0.406103 0.832546
vt 0.406103 0.838627
vt 0.400449 0.838511
vt 0.400449 0.832881
vt 0.407588 0.851129
vt 0.412561 0.851119
vt 0.412561 0.856957
vt 0.407279 0.856968
vt 0.361970 0.851119
vt 0.361970 0.861336
vt 0.356313 0.861336
vt 0.356310 0.851117
vt 0.333121 0.830731
vt 0.338403 0.830731
vt 0.338638 0.840949
vt 0.332750 0.840949
vt 0.373435 0.820467
vt 0.373435 0.830684
vt 0.367778 0.830681
vt 0.367778 0.820464
vt 0.384664 0.871560
vt 0.384664 0.881778
vt 0.379013 0.881778
vt 0.379011 0.871559
vt 0.350063 0.891991
vt 0.350063 0.897830
vt 0.344409 0.897852
vt 0.344409 0.892313
vt 0.384664 0.894302
vt 0.384664 0.900140
vt 0.379011 0.900140
vt 0.379011 0.894302
vt 0.384667 0.871560
vt 0.390321 0.871560
vt 0.390321 0.881778
vt 0.384667 0.881778
vt 0.338407 0.861444
vt 0.338403 0.871662
vt 0.332750 0.871662
vt 0.332750 0.861444
vt 0.395841 0.899778
vt 0.390325 0.899778
vt 0.390325 0.893940
vt 0.395890 0.893940
vt 0.407281 0.882398
vt 0.407281 0.887532
vt 0.401628 0.887770
vt 0.401628 0.881778
vt 0.356127 0.871721
vt 0.356127 0.881939
vt 0.350473 0.881939
vt 0.350474 0.871722
vt 0.356368 0.830681
vt 0.350566 0.830681
vt 0.350797 0.820464
vt 0.356312 0.820464
vt 0.344417 0.861335
vt 0.344409 0.851117
vt 0.350071 0.851117
vt 0.350070 0.861335
vt 0.367688 0.888114
vt 0.367688 0.894260
vt 0.362035 0.894023
vt 0.362035 0.888371
vt 0.338681 0.888149
vt 0.338681 0.881827
vt 0.344335 0.882168
vt 0.344335 0.888149
vt 0.395976 0.861341
vt 0.395976 0.871559
vt 0.390323 0.871559
vt 0.390326 0.861342
vt 0.338681 0.820464
vt 0.344474 0.820464
vt 0.344634 0.830681
vt 0.338681 0.830681
vt 0.384667 0.861341
vt 0.384664 0.871559
vt 0.379011 0.871559
vt 0.379011 0.861341
vt 0.344409 0.871553
vt 0.344414 0.861337
vt 0.350063 0.861335
vt 0.350067 0.871553
vt 0.407361 0.826424
vt 0.407361 0.832339
vt 0.401708 0.832270
vt 0.401708 0.826712
vt 0.367688 0.881788
vt 0.367688 0.888114
vt 0.362035 0.887626
vt 0.362035 0.881804
vt 0.344409 0.851171
vt 0.338772 0.851118
vt 0.338681 0.840899
vt 0.344409 0.840952
vt 0.350473 0.871721
vt 0.350478 0.861504
vt 0.356130 0.861503
vt 0.356130 0.871721
vt 0.356310 0.894304
vt 0.356310 0.888368
vt 0.361963 0.888214
vt 0.361963 0.894304
vt 0.361963 0.894732
vt 0.361963 0.900142
vt 0.356310 0.900142
vt 0.356310 0.894304
vt 0.350473 0.861503
vt 0.350476 0.851287
vt 0.356128 0.851284
vt 0.356133 0.861503
vt 0.356368 0.820464
vt 0.362021 0.820464
vt 0.362116 0.830681
vt 0.356368 0.830681
vt 0.379015 0.840899
vt 0.379020 0.851117
vt 0.373361 0.851117
vt 0.373361 0.840899
vt 0.379008 0.888390
vt 0.379008 0.894479
vt 0.373354 0.894228
vt 0.373354 0.888752
vt 0.332750 0.894256
vt 0.332750 0.888127
vt 0.338403 0.888418
vt 0.338403 0.894256
vt 0.384670 0.871560
vt 0.384667 0.861341
vt 0.390323 0.861342
vt 0.390323 0.871560
vt 0.338681 0.830681
vt 0.344335 0.830681
vt 0.344578 0.840899
vt 0.338681 0.840899
vt 0.373350 0.861337
vt 0.373345 0.871555
vt 0.367692 0.871555
vt 0.367692 0.861337
vt 0.362035 0.871570
vt 0.362038 0.861353
vt 0.367687 0.861351
vt 0.367692 0.871570
vt 0.390321 0.888133
vt 0.390321 0.894259
vt 0.384667 0.893968
vt 0.384667 0.888536
vt 0.384664 0.888176
vt 0.384664 0.894015
vt 0.379011 0.894302
vt 0.379011 0.888193
vt 0.344647 0.820464
vt 0.350562 0.820464
vt 0.350566 0.830681
vt 0.344634 0.830681
vt 0.379094 0.820464
vt 0.379088 0.830681
vt 0.373435 0.830681
vt 0.373435 0.820464
vt 0.344335 0.894275
vt 0.344335 0.900113
vt 0.338681 0.900113
vt 0.338681 0.894368
vt 0.384664 0.882226
vt 0.384664 0.888176
vt 0.379011 0.887694
vt 0.379011 0.881778
vt 0.367692 0.891992
vt 0.367692 0.881775
vt 0.373341 0.881773
vt 0.373341 0.891991
vt 0.356310 0.840899
vt 0.362038 0.840899
vt 0.361963 0.851117
vt 0.356310 0.851117
vt 0.379006 0.851120
vt 0.379011 0.861338
vt 0.373352 0.861338
vt 0.373352 0.851120
vt 0.390321 0.900098
vt 0.384667 0.900098
vt 0.384667 0.894259
vt 0.390321 0.894259
vt 0.390325 0.887863
vt 0.395974 0.888097
vt 0.395974 0.893940
vt 0.390412 0.893710
vt 0.367692 0.861336
vt 0.367699 0.851121
vt 0.373352 0.851120
vt 0.373352 0.861337
vt 0.350560 0.841062
vt 0.356126 0.840930
vt 0.356126 0.851151
vt 0.350473 0.851284
vt 0.401629 0.861341
vt 0.401629 0.871559
vt 0.395980 0.871559
vt 0.395976 0.861341
vt 0.395974 0.871560
vt 0.395974 0.881778
vt 0.390321 0.881778
vt 0.390324 0.871561
vt 0.332750 0.888127
vt 0.332750 0.882038
vt 0.338403 0.881880
vt 0.338403 0.888127
vt 0.411343 0.838385
vt 0.406103 0.838385
vt 0.406103 0.832546
vt 0.411630 0.832546
vt 0.344704 0.830681
vt 0.350231 0.830681
vt 0.350473 0.840899
vt 0.344578 0.840899
vt 0.338685 0.871608
vt 0.338681 0.861390
vt 0.344338 0.861391
vt 0.344338 0.871609
vt 0.407361 0.820625
vt 0.407361 0.825925
vt 0.401708 0.826424
vt 0.401708 0.820464
vt 0.356127 0.881939
vt 0.356127 0.888179
vt 0.350473 0.887778
vt 0.350473 0.882123
vt 0.379013 0.861339
vt 0.379011 0.851120
vt 0.384666 0.851122
vt 0.384666 0.861341
vt 0.349885 0.891991
vt 0.344409 0.891991
vt 0.344409 0.881773
vt 0.349541 0.881773
vt 0.395984 0.851117
vt 0.395984 0.840900
vt 0.401635 0.840897
vt 0.401635 0.851115
vt 0.394796 0.838751
vt 0.394796 0.832822
vt 0.400449 0.832546
vt 0.400449 0.838751
vt 0.401990 0.871742
vt 0.407278 0.871560
vt 0.407278 0.877402
vt 0.401627 0.877596
vt 0.338683 0.861389
vt 0.338681 0.851171
vt 0.344342 0.851172
vt 0.344342 0.861390
vt 0.344409 0.840899
vt 0.350063 0.840899
vt 0.350151 0.851117
vt 0.344409 0.851117
vt 0.338403 0.851227
vt 0.338410 0.861444
vt 0.332750 0.861444
vt 0.332750 0.851227
vt 0.356311 0.871555
vt 0.356310 0.861336
vt 0.361966 0.861338
vt 0.361966 0.871556
vt 0.379008 0.882029
vt 0.379008 0.887620
vt 0.373354 0.888390
vt 0.373354 0.881774
vt 0.401628 0.887949
vt 0.401628 0.894114
vt 0.395974 0.893788
vt 0.395974 0.887949
vt 0.384666 0.851119
vt 0.390320 0.851123
vt 0.390320 0.861341
vt 0.384905 0.861337
vt 0.401627 0.871560
vt 0.401627 0.881778
vt 0.395974 0.881778
vt 0.395977 0.871560
vt 0.401628 0.894114
vt 0.401628 0.899952
vt 0.395974 0.899952
vt 0.395974 0.894257
vt 0.356127 0.894282
vt 0.356127 0.900121
vt 0.350473 0.900121
vt 0.350473 0.894400
vt 0.362045 0.851119
vt 0.362038 0.840899
vt 0.367702 0.840902
vt 0.367702 0.851120
vt 0.338795 0.871609
vt 0.344335 0.871609
vt 0.344335 0.881827
vt 0.338681 0.881827
vt 0.390332 0.830681
vt 0.390330 0.840899
vt 0.384678 0.840899
vt 0.384676 0.830681
vt 0.367688 0.894681
vt 0.367688 0.900099
vt 0.362035 0.900099
vt 0.362035 0.894260
vt 0.338403 0.894256
vt 0.338403 0.900095
vt 0.332750 0.900095
vt 0.332750 0.894256
vt 0.395984 0.840899
vt 0.395984 0.851117
vt 0.390331 0.851117
vt 0.390331 0.840900
vt 0.390404 0.830681
vt 0.384750 0.830681
vt 0.384750 0.820464
vt 0.389997 0.820464
vt 0.401626 0.851119
vt 0.401626 0.861337
vt 0.395973 0.861337
vt 0.395978 0.851119
vt 0.390320 0.861337
vt 0.390320 0.851119
vt 0.395973 0.851119
vt 0.395973 0.861336
vt 0.344335 0.888149
vt 0.344335 0.894275
vt 0.338681 0.893906
vt 0.338681 0.888607
vt 0.407282 0.861372
vt 0.407282 0.867179
vt 0.401629 0.867311
vt 0.401629 0.861341
vt 0.338681 0.830731
vt 0.332901 0.830683
vt 0.332750 0.820464
vt 0.338681 0.820513
vt 0.367702 0.851118
vt 0.367708 0.840900
vt 0.373361 0.840899
vt 0.373361 0.851117
vt 0.356310 0.888214
vt 0.356310 0.882375
vt 0.361963 0.881776
vt 0.361963 0.888214
vt 0.378893 0.900317
vt 0.373354 0.900317
vt 0.373460 0.894479
vt 0.378747 0.894479
vt 0.401708 0.820464
vt 0.401705 0.830682
vt 0.396057 0.830682
vt 0.396057 0.820464
vt 0.362406 0.851132
vt 0.367692 0.851120
vt 0.367692 0.861338
vt 0.362038 0.861351
vt 0.350062 0.871555
vt 0.350062 0.881773
vt 0.344411 0.881771
vt 0.344409 0.871553
vt 0.407281 0.887949
vt 0.407281 0.893930
vt 0.401628 0.893855
vt 0.401628 0.888190
vt 0.412603 0.877399
vt 0.407278 0.877399
vt 0.407278 0.871560
vt 0.412439 0.871560
vt 0.362123 0.830683
vt 0.362116 0.820464
vt 0.367778 0.820465
vt 0.367778 0.830683
vt 0.361712 0.840899
vt 0.356551 0.840899
vt 0.356310 0.830681
vt 0.362101 0.830681
vt 0.384750 0.820464
vt 0.384750 0.830681
vt 0.379099 0.830681
vt 0.379094 0.820464
vt 0.361963 0.871557
vt 0.361963 0.881776
vt 0.356311 0.881775
vt 0.356310 0.871556
vt 0.407279 0.851407
vt 0.407279 0.857198
vt 0.401626 0.857134
vt 0.401626 0.851119
vt 0.356127 0.888232
vt 0.356127 0.894282
vt 0.350473 0.894206
vt 0.350473 0.888179
vt 0.350473 0.830681
vt 0.356310 0.830712
vt 0.356310 0.840930
vt 0.350702 0.840901
vt 0.379007 0.871556
vt 0.379008 0.881774
vt 0.373354 0.881774
vt 0.373358 0.871556
vt 0.407281 0.893608
vt 0.407281 0.887770
vt 0.411746 0.887770
vt 0.411746 0.893608
vt 0.411746 0.881778
vt 0.411746 0.887652
vt 0.407281 0.887569
vt 0.407281 0.881790
vt 0.367692 0.881773
vt 0.367694 0.871555
vt 0.373346 0.871555
vt 0.373346 0.881773
vt 0.367846 0.832513
vt 0.373442 0.832513
vt 0.373442 0.840866
vt 0.367788 0.840866
vt 0.394796 0.832547
vt 0.394796 0.840899
vt 0.390331 0.840899
vt 0.390331 0.832546
vt 0.395974 0.887863
vt 0.390325 0.887622
vt 0.390325 0.881778
vt 0.395974 0.882020
vt 0.401635 0.846865
vt 0.401635 0.840897
vt 0.407289 0.841027
vt 0.407289 0.846865
vt 0.373442 0.840865
vt 0.373443 0.832513
vt 0.377908 0.832513
vt 0.377908 0.840866
vt 0.362035 0.871570
vt 0.367688 0.871570
vt 0.367688 0.881788
vt 0.362035 0.881788
vt 0.384676 0.840899
vt 0.384673 0.851117
vt 0.379020 0.851117
vt 0.379020 0.840899
vt 0.373356 0.871556
vt 0.373354 0.861338
vt 0.379011 0.861338
vt 0.379011 0.871556
vt 0.367788 0.840899
vt 0.362135 0.840866
vt 0.362101 0.832513
vt 0.367788 0.832547
vn -1.0000 0.0000 0.0000
vn 1.0000 0.0000 0.0000
vn 0.0000 0.0000 1.0000
vn -0.0019 -1.0000 -0.0032
vn 0.0000 1.0000 0.0000
vn -0.0187 -0.9998 -0.0044
vn 0.0085 0.9975 0.0702
vn 0.0373 -0.9977 -0.0568
vn 0.0175 0.9998 -0.0089
vn -0.0158 -0.9995 -0.0276
vn 0.0011 1.0000 0.0019
vn 0.0272 -0.9984 -0.0487
vn -0.0117 0.9997 -0.0204
vn -0.0126 -0.9997 -0.0220
vn -0.0121 0.9999 0.0089
vn -0.0238 -0.9994 -0.0232
vn -0.0091 0.9993 0.0358
vn 0.0209 -0.9991 -0.0366
vn 0.0171 0.9998 0.0132
vn -0.0177 -0.9994 -0.0310
vn -0.0020 1.0000 0.0035
vn -0.0193 -0.9993 -0.0330
vn 0.0002 0.9988 -0.0495
vn 0.0173 -0.9988 -0.0463
vn -0.0312 0.9987 0.0413
vn 0.0158 -0.9995 0.0277
vn -0.0114 0.9997 -0.0200
vn 0.0273 -0.9993 -0.0254
vn 0.0322 0.9994 0.0135
vn -0.0358 -0.9989 0.0295
vn 0.0048 0.9970 0.0769
vn 0.0278 -0.9984 -0.0487
vn 0.0129 0.9991 0.0402
vn -0.0125 -0.9997 0.0218
vn 0.0224 0.9954 0.0934
vn -0.0013 -1.0000 -0.0022
vn -0.0205 -0.9991 0.0360
vn -0.0288 -0.9987 -0.0418
vn 0.0116 0.9990 -0.0428
vn 0.0320 -0.9994 0.0129
vn 0.0216 0.9979 0.0606
vn 0.0192 -0.9998 -0.0061
vn 0.0207 0.9998 -0.0064
vn -0.0115 -0.9997 0.0201
vn -0.0017 1.0000 0.0011
vn 0.0064 -1.0000 0.0012
vn -0.0050 0.9999 0.0090
vn -0.0118 -0.9997 -0.0207
vn 0.0055 0.9995 0.0318
vn -0.0000 0.0000 -1.0000
usemtl Texture
s off
f 1/1/1 2/2/1 4/3/1 3/4/1
f 7/5/2 8/6/2 6/7/2 5/8/2
f 5/9/3 6/10/3 2/11/3 1/12/3
f 3/13/4 7/14/4 5/15/4 1/16/4
f 9/17/1 10/18/1 12/19/1 11/20/1
f 15/21/2 16/22/2 14/23/2 13/24/2
f 8/25/5 4/26/5 2/27/5 6/28/5
f 13/29/3 14/30/3 10/31/3 9/32/3
f 11/33/6 15/34/6 13/35/6 9/36/6
f 17/37/1 18/38/1 20/39/1 19/40/1
f 23/41/2 24/42/2 22/43/2 21/44/2
f 16/45/7 12/46/7 10/47/7 14/48/7
f 21/49/3 22/50/3 18/51/3 17/52/3
f 19/53/8 23/54/8 21/55/8 17/56/8
f 24/57/9 20/58/9 18/59/9 22/60/9
f 25/61/1 26/62/1 28/63/1 27/64/1
f 31/65/2 32/66/2 30/67/2 29/68/2
f 29/69/3 30/70/3 26/71/3 25/72/3
f 27/73/10 31/74/10 29/75/10 25/76/10
f 33/77/1 34/78/1 36/79/1 35/80/1
f 39/81/2 40/82/2 38/83/2 37/84/2
f 32/85/11 28/86/11 26/87/11 30/88/11
f 37/89/3 38/90/3 34/91/3 33/92/3
f 35/93/12 39/94/12 37/95/12 33/96/12
f 41/97/1 42/98/1 44/99/1 43/100/1
f 47/101/2 48/102/2 46/103/2 45/104/2
f 40/105/13 36/106/13 34/107/13 38/108/13
f 45/109/3 46/110/3 42/111/3 41/112/3
f 43/113/14 47/114/14 45/115/14 41/116/14
f 48/117/15 44/118/15 42/119/15 46/120/15
f 49/121/1 50/122/1 52/123/1 51/124/1
f 55/125/2 56/126/2 54/127/2 53/128/2
f 53/129/3 54/130/3 50/131/3 49/132/3
f 51/133/16 55/134/16 53/135/16 49/136/16
f 57/137/1 58/138/1 60/139/1 59/140/1
f 63/141/2 64/142/2 62/143/2 61/144/2
f 56/145/17 52/146/17 50/147/17 54/148/17
f 61/149/3 62/150/3 58/151/3 57/152/3
f 59/153/18 63/154/18 61/155/18 57/156/18
f 65/157/1 66/158/1 68/159/1 67/160/1
f 71/161/2 72/162/2 70/163/2 69/164/2
f 64/165/19 60/166/19 58/167/19 62/168/19
f 69/169/3 70/170/3 66/171/3 65/172/3
f 67/173/20 71/174/20 69/175/20 65/176/20
f 72/177/21 68/178/21 66/179/21 70/180/21
f 73/181/1 74/182/1 76/183/1 75/184/1
f 79/185/2 80/186/2 78/187/2 77/188/2
f 77/189/3 78/190/3 74/191/3 73/192/3
f 75/193/22 79/194/22 77/195/22 73/196/22
f 81/197/1 82/198/1 84/199/1 83/200/1
f 87/201/2 88/202/2 86/203/2 85/204/2
f 80/205/23 76/206/23 74/207/23 78/208/23
f 85/209/3 86/210/3 82/211/3 81/212/3
f 83/213/24 87/214/24 85/215/24 81/216/24
f 89/217/1 90/218/1 92/219/1 91/220/1
f 95/221/2 96/222/2 94/223/2 93/224/2
f 88/225/25 84/226/25 82/227/25 86/228/25
f 93/229/3 94/230/3 90/231/3 89/232/3
f 91/233/26 95/234/26 93/235/26 89/236/26
f 96/237/27 92/238/27 90/239/27 94/240/27
f 97/241/1 98/242/1 100/243/1 99/244/1
f 103/245/2 104/246/2 102/247/2 101/248/2
f 101/249/3 102/250/3 98/251/3 97/252/3
f 99/253/28 103/254/28 101/255/28 97/256/28
f 105/257/1 106/258/1 108/259/1 107/260/1
f 111/261/2 112/262/2 110/263/2 109/264/2
f 104/265/29 100/266/29 98/267/29 102/268/29
f 109/269/3 110/270/3 106/271/3 105/272/3
f 107/273/30 111/274/30 109/275/30 105/276/30
f 113/277/1 114/278/1 116/279/1 115/280/1
f 119/281/2 120/282/2 118/283/2 117/284/2
f 112/285/31 108/286/31 106/287/31 110/288/31
f 117/289/3 118/290/3 114/291/3 113/292/3
f 115/293/32 119/294/32 117/295/32 113/296/32
f 120/297/33 116/298/33 114/299/33 118/300/33
f 121/301/1 122/302/1 124/303/1 123/304/1
f 127/305/2 128/306/2 126/307/2 125/308/2
f 125/309/3 126/310/3 122/311/3 121/312/3
f 123/313/34 127/314/34 125/315/34 121/316/34
f 129/317/1 130/318/1 132/319/1 131/320/1
f 135/321/2 136/322/2 134/323/2 133/324/2
f 128/325/35 124/326/35 122/327/35 126/328/35
f 133/329/3 134/330/3 130/331/3 129/332/3
f 131/333/36 135/334/36 133/335/36 129/336/36
f 137/337/1 138/338/1 140/339/1 139/340/1
f 143/341/2 144/342/2 142/343/2 141/344/2
f 136/345/5 132/346/5 130/347/5 134/348/5
f 141/349/3 142/350/3 138/351/3 137/352/3
f 139/353/37 143/354/37 141/355/37 137/356/37
f 144/357/5 140/358/5 138/359/5 142/360/5
f 145/361/1 146/362/1 148/363/1 147/364/1
f 151/365/2 152/366/2 150/367/2 149/368/2
f 149/369/3 150/370/3 146/371/3 145/372/3
f 147/373/38 151/374/38 149/375/38 145/376/38
f 153/377/1 154/378/1 156/379/1 155/380/1
f 159/381/2 160/382/2 158/383/2 157/384/2
f 152/385/39 148/386/39 146/387/39 150/388/39
f 157/389/3 158/390/3 154/391/3 153/392/3
f 155/393/40 159/394/40 157/395/40 153/396/40
f 161/397/1 162/398/1 164/399/1 163/400/1
f 167/401/2 168/402/2 166/403/2 165/404/2
f 160/405/41 156/406/41 154/407/41 158/408/41
f 165/409/3 166/410/3 162/411/3 161/412/3
f 163/413/42 167/414/42 165/415/42 161/416/42
f 168/417/43 164/418/43 162/419/43 166/420/43
f 169/421/1 170/422/1 172/423/1 171/424/1
f 175/425/2 176/426/2 174/427/2 173/428/2
f 173/429/3 174/430/3 170/431/3 169/432/3
f 171/433/44 175/434/44 173/435/44 169/436/44
f 177/437/1 178/438/1 180/439/1 179/440/1
f 183/441/2 184/442/2 182/443/2 181/444/2
f 176/445/45 172/446/45 170/447/45 174/448/45
f 181/449/3 182/450/3 178/451/3 177/452/3
f 179/453/46 183/454/46 181/455/46 177/456/46
f 185/457/1 186/458/1 188/459/1 187/460/1
f 191/461/2 192/462/2 190/463/2 189/464/2
f 184/465/47 180/466/47 178/467/47 182/468/47
f 189/469/3 190/470/3 186/471/3 185/472/3
f 187/473/48 191/474/48 189/475/48 185/476/48
f 192/477/49 188/478/49 186/479/49 190/480/49
f 179/481/50 180/482/50 184/483/50 183/484/50
