# Blender v2.79 (sub 0) OBJ File: 'Bricks_Small.blend'
# www.blender.org
mtllib Bricks_Small.mtl
o Bricks_Small_Cube.014
v -0.303350 -0.215903 0.068213
v -0.303350 -0.079478 0.068213
v -0.303350 -0.215018 -0.068213
v -0.303350 -0.079478 -0.068213
v -0.064590 -0.215903 0.068213
v -0.064590 -0.079478 0.068213
v -0.064590 -0.215903 -0.068213
v -0.064590 -0.079478 -0.068213
v -0.185228 -0.067876 0.068213
v -0.185228 0.069204 0.068213
v -0.185228 -0.065229 -0.068213
v -0.185228 0.076321 -0.068213
v 0.053532 -0.070298 0.068213
v 0.053532 0.064682 0.068213
v 0.053532 -0.071743 -0.068213
v 0.053532 0.076757 -0.068213
v -0.303350 0.068168 0.068213
v -0.303350 0.210264 0.068213
v -0.303350 0.075981 -0.068213
v -0.303350 0.207552 -0.068213
v -0.064590 0.077137 0.068213
v -0.064590 0.204594 0.068213
v -0.064590 0.084866 -0.068213
v -0.064590 0.204870 -0.068213
v -0.053532 -0.215903 0.068213
v -0.053532 -0.079478 0.068213
v -0.053532 -0.208376 -0.068213
v -0.053532 -0.078962 -0.068213
v 0.185228 -0.215903 0.068213
v 0.185228 -0.079478 0.068213
v 0.185228 -0.215903 -0.068213
v 0.185228 -0.079478 -0.068213
v 0.064590 -0.068419 0.068213
v 0.064590 0.064682 0.068213
v 0.064590 -0.069605 -0.068213
v 0.064590 0.064682 -0.068213
v 0.303350 -0.069755 0.068213
v 0.303350 0.070248 0.068213
v 0.303350 -0.055269 -0.068213
v 0.303350 0.064682 -0.068213
v -0.053532 0.068168 0.068213
v -0.053532 0.211799 0.068213
v -0.053532 0.074179 -0.068213
v -0.053532 0.206260 -0.068213
v 0.185228 0.068168 0.068213
v 0.185228 0.207940 0.068213
v 0.185228 0.068168 -0.068213
v 0.185228 0.215903 -0.068213
vt 0.459549 0.771360
vt 0.459549 0.796507
vt 0.433939 0.796507
vt 0.433939 0.771523
vt 0.458967 0.935580
vt 0.433357 0.935580
vt 0.433357 0.910433
vt 0.458967 0.910433
vt 0.382720 0.771360
vt 0.408330 0.771360
vt 0.408330 0.815371
vt 0.382720 0.815371
vt 0.356482 0.947406
vt 0.356487 0.903395
vt 0.382087 0.903394
vt 0.382087 0.947405
vt 0.356418 0.903406
vt 0.356418 0.928675
vt 0.330808 0.929986
vt 0.330808 0.903894
vt 0.433939 0.771360
vt 0.433939 0.798733
vt 0.408330 0.796507
vt 0.408330 0.771626
vt 0.433357 0.859383
vt 0.433357 0.903394
vt 0.407749 0.903394
vt 0.407749 0.859383
vt 0.302903 0.859641
vt 0.277566 0.859388
vt 0.277172 0.815371
vt 0.302903 0.815627
vt 0.330808 0.903406
vt 0.330829 0.859398
vt 0.356422 0.859389
vt 0.302782 0.903652
vt 0.302782 0.929845
vt 0.277172 0.929345
vt 0.277172 0.905092
vt 0.409548 0.928587
vt 0.432075 0.928542
vt 0.432075 0.953690
vt 0.408149 0.953737
vt 0.407749 0.815372
vt 0.407749 0.859383
vt 0.382129 0.859383
vt 0.382120 0.815371
vt 0.305818 0.771360
vt 0.329744 0.771360
vt 0.330808 0.815371
vt 0.304134 0.815371
vt 0.330808 0.815398
vt 0.330808 0.859414
vt 0.305169 0.859386
vt 0.305168 0.815371
vt 0.330777 0.859417
vt 0.330777 0.903428
vt 0.305173 0.903426
vt 0.305168 0.859414
vt 0.458967 0.885190
vt 0.458967 0.910337
vt 0.433357 0.910433
vt 0.433357 0.886578
vt 0.458968 0.840519
vt 0.433359 0.840519
vt 0.433359 0.815371
vt 0.458968 0.815371
vt 0.277172 0.859641
vt 0.302782 0.859641
vt 0.302782 0.903652
vt 0.277172 0.903652
vt 0.356482 0.859380
vt 0.356520 0.815373
vt 0.382120 0.815371
vt 0.382120 0.859382
vt 0.433135 0.928542
vt 0.408149 0.928542
vt 0.408149 0.903394
vt 0.433357 0.903394
vt 0.458967 0.862053
vt 0.458967 0.884164
vt 0.433357 0.885190
vt 0.433357 0.859383
vt 0.433357 0.815371
vt 0.433359 0.859382
vt 0.407749 0.859382
vt 0.407749 0.815371
vt 0.357089 0.815371
vt 0.330808 0.815371
vt 0.331853 0.771360
vt 0.356838 0.771360
vt 0.330888 0.859389
vt 0.330808 0.815371
vt 0.356482 0.815372
vt 0.356482 0.859383
vt 0.330778 0.903428
vt 0.330778 0.929903
vt 0.305168 0.928882
vt 0.305168 0.904536
vt 0.382140 0.930626
vt 0.382140 0.903394
vt 0.407750 0.904862
vt 0.407750 0.930626
vt 0.407749 0.859383
vt 0.407749 0.903394
vt 0.382140 0.903394
vt 0.382149 0.859384
vt 0.277172 0.771360
vt 0.303410 0.771360
vt 0.304134 0.815371
vt 0.277172 0.815371
vt 0.357089 0.815370
vt 0.357120 0.771361
vt 0.382720 0.771360
vt 0.382720 0.815371
vt 0.356482 0.903394
vt 0.356497 0.859383
vt 0.382096 0.859382
vt 0.382104 0.903394
vn -1.0000 0.0000 0.0000
vn 1.0000 0.0000 0.0000
vn 0.0000 0.0000 1.0000
vn -0.0019 -1.0000 -0.0032
vn 0.0000 1.0000 0.0000
vn -0.0187 -0.9998 -0.0044
vn 0.0085 0.9975 0.0702
vn 0.0373 -0.9977 -0.0568
vn 0.0175 0.9998 -0.0089
vn -0.0158 -0.9995 -0.0276
vn 0.0011 1.0000 0.0019
vn 0.0272 -0.9984 -0.0487
vn -0.0117 0.9997 -0.0204
vn -0.0126 -0.9997 -0.0220
vn -0.0121 0.9999 0.0089
usemtl Texture
s off
f 1/1/1 2/2/1 4/3/1 3/4/1
f 7/5/2 8/6/2 6/7/2 5/8/2
f 5/9/3 6/10/3 2/11/3 1/12/3
f 3/13/4 7/14/4 5/15/4 1/16/4
f 9/17/1 10/18/1 12/19/1 11/20/1
f 15/21/2 16/22/2 14/23/2 13/24/2
f 8/25/5 4/26/5 2/27/5 6/28/5
f 13/29/3 14/30/3 10/31/3 9/32/3
f 11/33/6 15/34/6 13/35/6 9/17/6
f 17/36/1 18/37/1 20/38/1 19/39/1
f 23/40/2 24/41/2 22/42/2 21/43/2
f 16/44/7 12/45/7 10/46/7 14/47/7
f 21/48/3 22/49/3 18/50/3 17/51/3
f 19/52/8 23/53/8 21/54/8 17/55/8
f 24/56/9 20/57/9 18/58/9 22/59/9
f 25/60/1 26/61/1 28/62/1 27/63/1
f 31/64/2 32/65/2 30/66/2 29/67/2
f 29/68/3 30/69/3 26/70/3 25/71/3
f 27/72/10 31/73/10 29/74/10 25/75/10
f 33/76/1 34/77/1 36/78/1 35/79/1
f 39/80/2 40/81/2 38/82/2 37/83/2
f 32/84/11 28/85/11 26/86/11 30/87/11
f 37/88/3 38/89/3 34/90/3 33/91/3
f 35/92/12 39/93/12 37/94/12 33/95/12
f 41/96/1 42/97/1 44/98/1 43/99/1
f 47/100/2 48/101/2 46/102/2 45/103/2
f 40/104/13 36/105/13 34/106/13 38/107/13
f 45/108/3 46/109/3 42/110/3 41/111/3
f 43/112/14 47/113/14 45/114/14 41/115/14
f 48/116/15 44/117/15 42/118/15 46/119/15
