# Blender v2.79 (sub 0) OBJ File: 'Door_Window2.blend'
# www.blender.org
mtllib Door_Window2.mtl
o Door_Window2_Cube.173
v -0.221863 -0.008413 0.045107
v -0.221863 0.898182 0.045107
v -0.221863 -0.008413 0.006891
v -0.221863 0.898182 0.006891
v 0.221863 -0.008413 0.045107
v 0.221863 0.898182 0.045107
v 0.221863 -0.008413 0.006891
v 0.221863 0.898182 0.006891
v 0.056894 -0.008413 0.006891
v 0.056894 0.898182 0.006891
v 0.056894 -0.008413 0.045107
v 0.056894 0.898182 0.045107
v 0.178959 0.898182 0.006891
v 0.178959 -0.008413 0.045107
v 0.178959 -0.008413 0.006891
v 0.178959 0.898182 0.045107
v 0.162234 0.837229 0.045107
v 0.073619 0.837229 0.045107
v 0.073619 0.052539 0.045107
v 0.162234 0.052539 0.045107
v 0.162234 0.837229 0.056458
v 0.073619 0.837229 0.056458
v 0.073619 0.052539 0.056458
v 0.162234 0.052539 0.056458
v 0.151515 0.825854 0.056458
v 0.084338 0.825854 0.056458
v 0.084338 0.063915 0.056458
v 0.151515 0.063915 0.056458
v 0.151515 0.825854 0.048644
v 0.084338 0.825854 0.048644
v 0.084338 0.063915 0.048644
v 0.151515 0.063915 0.048644
v -0.198238 0.818770 0.049441
v -0.198238 0.818770 0.042978
v 0.081724 0.818770 0.042978
v 0.081724 0.818770 0.049441
v -0.198238 0.809889 0.049441
v -0.198238 0.809889 0.042978
v 0.081724 0.809889 0.049441
v 0.081724 0.809889 0.042978
v -0.198238 0.671331 0.049441
v -0.198238 0.671331 0.042978
v 0.081724 0.671331 0.042978
v 0.081724 0.671331 0.049441
v -0.198238 0.662450 0.049441
v -0.198238 0.662450 0.042978
v 0.081724 0.662450 0.049441
v 0.081724 0.662450 0.042978
v -0.198238 0.523892 0.049441
v -0.198238 0.523892 0.042978
v 0.081724 0.523892 0.042978
v 0.081724 0.523892 0.049441
v -0.198238 0.515011 0.049441
v -0.198238 0.515011 0.042978
v 0.081724 0.515011 0.049441
v 0.081724 0.515011 0.042978
v -0.198238 0.376453 0.049441
v -0.198238 0.376453 0.042978
v 0.081724 0.376453 0.042978
v 0.081724 0.376453 0.049441
v -0.198238 0.367571 0.049441
v -0.198238 0.367571 0.042978
v 0.081724 0.367571 0.049441
v 0.081724 0.367571 0.042978
v -0.198238 0.229014 0.049441
v -0.198238 0.229014 0.042978
v 0.081724 0.229014 0.042978
v 0.081724 0.229014 0.049441
v -0.198238 0.220132 0.049441
v -0.198238 0.220132 0.042978
v 0.081724 0.220132 0.049441
v 0.081724 0.220132 0.042978
v -0.198238 0.081575 0.049441
v -0.198238 0.081575 0.042978
v 0.081724 0.081575 0.042978
v 0.081724 0.081575 0.049441
v -0.198238 0.072693 0.049441
v -0.198238 0.072693 0.042978
v 0.081724 0.072693 0.049441
v 0.081724 0.072693 0.042978
vt 0.434384 0.519204
vt 0.434384 0.696599
vt 0.426147 0.696599
vt 0.426147 0.519204
vt 0.442622 0.519204
vt 0.442622 0.696599
vt 0.434384 0.696599
vt 0.434384 0.519204
vt 0.332485 0.696599
vt 0.332485 0.519204
vt 0.392568 0.519204
vt 0.392568 0.696599
vt 0.442622 0.527599
vt 0.450859 0.519204
vt 0.450859 0.527599
vt 0.459096 0.551484
vt 0.459096 0.606028
vt 0.450859 0.606028
vt 0.450859 0.551484
vt 0.459096 0.527599
vt 0.450859 0.527599
vt 0.442622 0.606028
vt 0.442622 0.551484
vt 0.450859 0.551484
vt 0.450859 0.606028
vt 0.328880 0.684672
vt 0.328880 0.531130
vt 0.296927 0.696599
vt 0.296927 0.519204
vt 0.306175 0.519204
vt 0.306175 0.696599
vt 0.459096 0.519204
vt 0.450859 0.519204
vt 0.463989 0.519204
vt 0.463989 0.672745
vt 0.461542 0.672745
vt 0.461542 0.519204
vt 0.309780 0.531130
vt 0.309780 0.684672
vt 0.411668 0.672745
vt 0.392568 0.672745
vt 0.394878 0.670520
vt 0.409357 0.670520
vt 0.461542 0.519204
vt 0.461542 0.672745
vt 0.459096 0.672745
vt 0.459096 0.519204
vt 0.467357 0.663444
vt 0.467357 0.646104
vt 0.469804 0.646104
vt 0.469804 0.663444
vt 0.469804 0.628765
vt 0.469804 0.646104
vt 0.467357 0.646104
vt 0.467357 0.628765
vt 0.463989 0.668294
vt 0.463989 0.519204
vt 0.465673 0.519204
vt 0.465673 0.668294
vt 0.392568 0.519204
vt 0.411668 0.519204
vt 0.409357 0.521430
vt 0.394878 0.521430
vt 0.365682 0.206705
vt 0.365682 0.020857
vt 0.383731 0.020857
vt 0.383731 0.206705
vt 0.465673 0.668294
vt 0.465673 0.519204
vt 0.467357 0.519204
vt 0.467357 0.668294
vt 0.442622 0.673954
vt 0.442622 0.660809
vt 0.444306 0.660809
vt 0.444306 0.673954
vt 0.445990 0.660809
vt 0.445990 0.673954
vt 0.444306 0.673954
vt 0.444306 0.660809
vt 0.474322 0.519204
vt 0.474322 0.573984
vt 0.472929 0.573984
vt 0.472929 0.519204
vt 0.467357 0.573984
vt 0.468750 0.573984
vt 0.468750 0.628765
vt 0.467357 0.628765
vt 0.450169 0.660809
vt 0.450169 0.662547
vt 0.448776 0.662547
vt 0.448776 0.660809
vt 0.447383 0.660809
vt 0.447383 0.662547
vt 0.445990 0.662547
vt 0.445990 0.660809
vt 0.452773 0.660809
vt 0.450859 0.660809
vt 0.450859 0.606028
vt 0.452773 0.606028
vt 0.470143 0.573984
vt 0.470143 0.628765
vt 0.468750 0.628765
vt 0.468750 0.573984
vt 0.467357 0.519204
vt 0.468750 0.519204
vt 0.468750 0.573984
vt 0.467357 0.573984
vt 0.448776 0.660809
vt 0.448776 0.662547
vt 0.447383 0.662547
vt 0.447383 0.660809
vt 0.452955 0.662547
vt 0.452955 0.664285
vt 0.451562 0.664285
vt 0.451562 0.662547
vt 0.447030 0.660809
vt 0.445115 0.660809
vt 0.445115 0.606028
vt 0.447030 0.606028
vt 0.471536 0.519204
vt 0.471536 0.573984
vt 0.470143 0.573984
vt 0.470143 0.519204
vt 0.468750 0.519204
vt 0.470143 0.519204
vt 0.470143 0.573984
vt 0.468750 0.573984
vt 0.450169 0.662547
vt 0.450169 0.664285
vt 0.448776 0.664285
vt 0.448776 0.662547
vt 0.455741 0.662547
vt 0.455741 0.664285
vt 0.454348 0.664285
vt 0.454348 0.662547
vt 0.454687 0.660809
vt 0.452773 0.660809
vt 0.452773 0.606028
vt 0.454687 0.606028
vt 0.471536 0.573984
vt 0.471536 0.628765
vt 0.470143 0.628765
vt 0.470143 0.573984
vt 0.457473 0.606028
vt 0.458866 0.606028
vt 0.458866 0.660809
vt 0.457473 0.660809
vt 0.455741 0.660809
vt 0.455741 0.662547
vt 0.454348 0.662547
vt 0.454348 0.660809
vt 0.451562 0.662547
vt 0.451562 0.664285
vt 0.450169 0.664285
vt 0.450169 0.662547
vt 0.444536 0.660809
vt 0.442622 0.660809
vt 0.442622 0.606028
vt 0.444536 0.606028
vt 0.472929 0.573984
vt 0.472929 0.628765
vt 0.471536 0.628765
vt 0.471536 0.573984
vt 0.454687 0.606028
vt 0.456080 0.606028
vt 0.456080 0.660809
vt 0.454687 0.660809
vt 0.454348 0.662547
vt 0.454348 0.664285
vt 0.452955 0.664285
vt 0.452955 0.662547
vt 0.451562 0.660809
vt 0.451562 0.662547
vt 0.450169 0.662547
vt 0.450169 0.660809
vt 0.450859 0.660809
vt 0.448944 0.660809
vt 0.448944 0.606028
vt 0.450859 0.606028
vt 0.472929 0.519204
vt 0.472929 0.573984
vt 0.471536 0.573984
vt 0.471536 0.519204
vt 0.456080 0.606028
vt 0.457473 0.606028
vt 0.457473 0.660809
vt 0.456080 0.660809
vt 0.452955 0.660809
vt 0.452955 0.662547
vt 0.451562 0.662547
vt 0.451562 0.660809
vt 0.454348 0.660809
vt 0.454348 0.662547
vt 0.452955 0.662547
vt 0.452955 0.660809
vt 0.448944 0.660809
vt 0.447030 0.660809
vt 0.447030 0.606028
vt 0.448944 0.606028
vn -1.0000 0.0000 0.0000
vn 1.0000 0.0000 0.0000
vn 0.0000 0.0000 1.0000
vn 0.0000 -1.0000 0.0000
vn 0.0000 1.0000 0.0000
usemtl Texture
s off
f 1/1/1 2/2/1 4/3/1 3/4/1
f 7/5/2 8/6/2 6/7/2 5/8/2
f 11/9/3 12/10/3 2/11/3 1/12/3
f 15/13/4 7/5/4 5/14/4 14/15/4
f 10/16/5 4/17/5 2/18/5 12/19/5
f 13/20/5 10/16/5 12/19/5 16/21/5
f 3/22/4 9/23/4 11/24/4 1/25/4
f 12/10/3 11/9/3 19/26/3 18/27/3
f 5/28/3 6/29/3 16/30/3 14/31/3
f 8/32/5 13/20/5 16/21/5 6/33/5
f 9/23/4 15/13/4 14/15/4 11/24/4
f 20/34/2 17/35/2 21/36/2 24/37/2
f 14/31/3 16/30/3 17/38/3 20/39/3
f 16/30/3 12/10/3 18/27/3 17/38/3
f 11/9/3 14/31/3 20/39/3 19/26/3
f 23/40/3 24/41/3 28/42/3 27/43/3
f 18/44/1 19/45/1 23/46/1 22/47/1
f 19/48/4 20/49/4 24/50/4 23/51/4
f 17/52/5 18/53/5 22/54/5 21/55/5
f 28/56/1 25/57/1 29/58/1 32/59/1
f 21/60/3 22/61/3 26/62/3 25/63/3
f 24/41/3 21/60/3 25/63/3 28/42/3
f 22/61/3 23/40/3 27/43/3 26/62/3
f 32/64/3 29/65/3 30/66/3 31/67/3
f 26/68/2 27/69/2 31/70/2 30/71/2
f 27/72/5 28/73/5 32/74/5 31/75/5
f 25/76/4 26/77/4 30/78/4 29/79/4
f 35/80/5 34/81/5 33/82/5 36/83/5
f 40/84/4 39/85/4 37/86/4 38/87/4
f 34/88/1 38/89/1 37/90/1 33/91/1
f 36/92/2 39/93/2 40/94/2 35/95/2
f 33/96/3 37/97/3 39/98/3 36/99/3
f 43/100/5 42/101/5 41/102/5 44/103/5
f 48/104/4 47/105/4 45/106/4 46/107/4
f 42/108/1 46/109/1 45/110/1 41/111/1
f 44/112/2 47/113/2 48/114/2 43/115/2
f 41/116/3 45/117/3 47/118/3 44/119/3
f 51/120/5 50/121/5 49/122/5 52/123/5
f 56/124/4 55/125/4 53/126/4 54/127/4
f 50/128/1 54/129/1 53/130/1 49/131/1
f 52/132/2 55/133/2 56/134/2 51/135/2
f 49/136/3 53/137/3 55/138/3 52/139/3
f 59/140/5 58/141/5 57/142/5 60/143/5
f 64/144/4 63/145/4 61/146/4 62/147/4
f 58/148/1 62/149/1 61/150/1 57/151/1
f 60/152/2 63/153/2 64/154/2 59/155/2
f 57/156/3 61/157/3 63/158/3 60/159/3
f 67/160/5 66/161/5 65/162/5 68/163/5
f 72/164/4 71/165/4 69/166/4 70/167/4
f 66/168/1 70/169/1 69/170/1 65/171/1
f 68/172/2 71/173/2 72/174/2 67/175/2
f 65/176/3 69/177/3 71/178/3 68/179/3
f 75/180/5 74/181/5 73/182/5 76/183/5
f 80/184/4 79/185/4 77/186/4 78/187/4
f 74/188/1 78/189/1 77/190/1 73/191/1
f 76/192/2 79/193/2 80/194/2 75/195/2
f 73/196/3 77/197/3 79/198/3 76/199/3
