# Blender v2.79 (sub 0) OBJ File: 'Door4.blend'
# www.blender.org
mtllib Door4.mtl
o Door4_Cube.169
v -0.221844 -0.011444 0.038585
v -0.221844 0.904753 0.038585
v -0.221844 -0.011444 -0.011549
v -0.221844 0.904753 -0.011549
v -0.137604 -0.011444 -0.011549
v -0.137604 0.904753 0.038585
v -0.137604 0.904753 -0.011549
v -0.137604 -0.011444 0.038585
v -0.131153 0.904753 -0.011549
v -0.131153 -0.011444 0.015704
v -0.131153 -0.011444 -0.011549
v -0.131153 0.904753 0.015704
v 0.221844 -0.011444 0.038585
v 0.221844 0.904753 0.038585
v 0.221844 -0.011444 -0.011549
v 0.221844 0.904753 -0.011549
v 0.137604 -0.011444 -0.011549
v 0.137604 0.904753 0.038585
v 0.137604 0.904753 -0.011549
v 0.137604 -0.011444 0.038585
v 0.131153 0.904753 -0.011549
v 0.131153 -0.011444 0.015704
v 0.131153 -0.011444 -0.011549
v 0.131153 0.904753 0.015704
v -0.139620 0.788643 0.031662
v -0.139620 0.887375 0.031662
v -0.139620 0.775568 0.011573
v -0.139620 0.900450 0.011573
v 0.139620 0.788643 0.031662
v 0.139620 0.887375 0.031662
v 0.139620 0.775568 0.011573
v 0.139620 0.900450 0.011573
v -0.139620 0.676248 0.031662
v -0.139620 0.774981 0.031662
v -0.139620 0.663174 0.011573
v -0.139620 0.788056 0.011573
v 0.139620 0.676248 0.031662
v 0.139620 0.774981 0.031662
v 0.139620 0.663174 0.011573
v 0.139620 0.788056 0.011573
v -0.139620 0.563854 0.031662
v -0.139620 0.662587 0.031662
v -0.139620 0.550780 0.011573
v -0.139620 0.675662 0.011573
v 0.139620 0.563854 0.031662
v 0.139620 0.662587 0.031662
v 0.139620 0.550780 0.011573
v 0.139620 0.675662 0.011573
v -0.139620 0.451460 0.031662
v -0.139620 0.550193 0.031662
v -0.139620 0.438386 0.011573
v -0.139620 0.563268 0.011573
v 0.139620 0.451460 0.031662
v 0.139620 0.550193 0.031662
v 0.139620 0.438386 0.011573
v 0.139620 0.563268 0.011573
v -0.139620 0.339066 0.031662
v -0.139620 0.437799 0.031662
v -0.139620 0.325991 0.011573
v -0.139620 0.450874 0.011573
v 0.139620 0.339066 0.031662
v 0.139620 0.437799 0.031662
v 0.139620 0.325991 0.011573
v 0.139620 0.450874 0.011573
v -0.139620 0.226672 0.031662
v -0.139620 0.325405 0.031662
v -0.139620 0.213597 0.011573
v -0.139620 0.338480 0.011573
v 0.139620 0.226672 0.031662
v 0.139620 0.325405 0.031662
v 0.139620 0.213597 0.011573
v 0.139620 0.338480 0.011573
v -0.139620 0.114278 0.031662
v -0.139620 0.213011 0.031662
v -0.139620 0.101203 0.011573
v -0.139620 0.226086 0.011573
v 0.139620 0.114278 0.031662
v 0.139620 0.213011 0.031662
v 0.139620 0.101203 0.011573
v 0.139620 0.226086 0.011573
v -0.139620 0.001884 0.031662
v -0.139620 0.100617 0.031662
v -0.139620 -0.011191 0.011573
v -0.139620 0.113692 0.011573
v 0.139620 0.001884 0.031662
v 0.139620 0.100617 0.031662
v 0.139620 -0.011191 0.011573
v 0.139620 0.113692 0.011573
vt 0.402059 0.672423
vt 0.402059 0.536494
vt 0.409189 0.536494
vt 0.409189 0.672423
vt 0.382944 0.672423
vt 0.382944 0.536494
vt 0.394929 0.536494
vt 0.394929 0.672423
vt 0.451331 0.614819
vt 0.451331 0.602321
vt 0.458463 0.602321
vt 0.458463 0.614819
vt 0.370959 0.672423
vt 0.333640 0.672423
vt 0.333640 0.536494
vt 0.370959 0.536494
vt 0.451331 0.602321
vt 0.451331 0.589823
vt 0.458463 0.589823
vt 0.458463 0.602321
vt 0.451331 0.615776
vt 0.455208 0.615776
vt 0.461742 0.536494
vt 0.461743 0.672423
vt 0.458463 0.672423
vt 0.458463 0.536494
vt 0.409189 0.660780
vt 0.409189 0.619352
vt 0.423237 0.619352
vt 0.423237 0.660780
vt 0.451331 0.549949
vt 0.455208 0.549949
vt 0.455208 0.588866
vt 0.451331 0.588866
vt 0.394929 0.536494
vt 0.402059 0.536494
vt 0.402059 0.672423
vt 0.394929 0.672423
vt 0.382944 0.672423
vt 0.370959 0.672423
vt 0.370959 0.536494
vt 0.382944 0.536494
vt 0.451331 0.655649
vt 0.458463 0.655649
vt 0.458463 0.668148
vt 0.451331 0.668148
vt 0.451331 0.536494
vt 0.458463 0.536494
vt 0.458463 0.548992
vt 0.451331 0.548992
vt 0.451331 0.654692
vt 0.455208 0.654692
vt 0.461743 0.536494
vt 0.465022 0.536494
vt 0.465022 0.672423
vt 0.461743 0.672423
vt 0.467880 0.577923
vt 0.467880 0.536494
vt 0.470738 0.536494
vt 0.470738 0.577923
vt 0.437284 0.662720
vt 0.440141 0.660780
vt 0.440141 0.679308
vt 0.437284 0.677368
vt 0.473596 0.619352
vt 0.473596 0.660780
vt 0.470738 0.660780
vt 0.470738 0.619352
vt 0.409189 0.577923
vt 0.409189 0.536494
vt 0.423237 0.536494
vt 0.423237 0.577923
vt 0.414903 0.677368
vt 0.414903 0.662720
vt 0.417760 0.660780
vt 0.417760 0.679308
vt 0.465022 0.660780
vt 0.465022 0.619352
vt 0.467880 0.619352
vt 0.467880 0.660780
vt 0.470738 0.662720
vt 0.473595 0.660780
vt 0.473595 0.679308
vt 0.470738 0.677368
vt 0.448716 0.619352
vt 0.448716 0.660780
vt 0.445858 0.660780
vt 0.445858 0.619352
vt 0.409189 0.619352
vt 0.409189 0.577923
vt 0.423237 0.577923
vt 0.423237 0.619352
vt 0.473596 0.677368
vt 0.473596 0.662720
vt 0.476453 0.660780
vt 0.476453 0.679308
vt 0.465022 0.619352
vt 0.465022 0.577923
vt 0.467880 0.577923
vt 0.467880 0.619352
vt 0.431808 0.677368
vt 0.428951 0.679308
vt 0.428951 0.660780
vt 0.431808 0.662720
vt 0.440142 0.619352
vt 0.440142 0.660780
vt 0.437284 0.660780
vt 0.437284 0.619352
vt 0.437284 0.619352
vt 0.437284 0.577923
vt 0.451331 0.577923
vt 0.451331 0.619352
vt 0.434427 0.677368
vt 0.434427 0.662720
vt 0.437284 0.660780
vt 0.437284 0.679308
vt 0.467880 0.619352
vt 0.467880 0.577923
vt 0.470738 0.577923
vt 0.470738 0.619352
vt 0.445858 0.662720
vt 0.448715 0.660780
vt 0.448715 0.679308
vt 0.445858 0.677368
vt 0.476454 0.619352
vt 0.476454 0.660780
vt 0.473596 0.660780
vt 0.473596 0.619352
vt 0.423237 0.660780
vt 0.423237 0.619352
vt 0.437284 0.619352
vt 0.437284 0.660780
vt 0.409189 0.677368
vt 0.409189 0.662720
vt 0.412046 0.660780
vt 0.412046 0.679308
vt 0.470738 0.619352
vt 0.470738 0.577923
vt 0.473596 0.577923
vt 0.473596 0.619352
vt 0.467880 0.662720
vt 0.470737 0.660780
vt 0.470737 0.679308
vt 0.467880 0.677368
vt 0.467880 0.536494
vt 0.467880 0.577923
vt 0.465022 0.577923
vt 0.465022 0.536494
vt 0.423237 0.577923
vt 0.423237 0.536494
vt 0.437284 0.536494
vt 0.437284 0.577923
vt 0.423237 0.677368
vt 0.423237 0.662720
vt 0.426094 0.660780
vt 0.426094 0.679308
vt 0.473596 0.577923
vt 0.473596 0.536494
vt 0.476454 0.536494
vt 0.476454 0.577923
vt 0.465022 0.662720
vt 0.467879 0.660780
vt 0.467879 0.679308
vt 0.465022 0.677368
vt 0.443000 0.619352
vt 0.443000 0.660780
vt 0.440142 0.660780
vt 0.440142 0.619352
vt 0.423237 0.619352
vt 0.423237 0.577923
vt 0.437284 0.577923
vt 0.437284 0.619352
vt 0.417760 0.677368
vt 0.417760 0.662720
vt 0.420617 0.660780
vt 0.420617 0.679308
vt 0.470738 0.577923
vt 0.470738 0.536494
vt 0.473596 0.536494
vt 0.473596 0.577923
vt 0.440142 0.662720
vt 0.442999 0.660780
vt 0.442999 0.679308
vt 0.440142 0.677368
vt 0.476454 0.577923
vt 0.476454 0.619352
vt 0.473596 0.619352
vt 0.473596 0.577923
vt 0.437284 0.577923
vt 0.437284 0.536494
vt 0.451331 0.536494
vt 0.451331 0.577923
vt 0.426094 0.677368
vt 0.426094 0.662720
vt 0.428951 0.660780
vt 0.428951 0.679308
vt 0.467880 0.660780
vt 0.467880 0.619352
vt 0.470738 0.619352
vt 0.470738 0.660780
vt 0.442999 0.662720
vt 0.445856 0.660780
vt 0.445856 0.679308
vt 0.442999 0.677368
vt 0.445858 0.619352
vt 0.445858 0.660780
vt 0.443000 0.660780
vt 0.443000 0.619352
vt 0.412046 0.677368
vt 0.412046 0.662720
vt 0.414903 0.660780
vt 0.414903 0.679308
vn -1.0000 0.0000 0.0000
vn 0.0000 0.0000 1.0000
vn 0.0000 1.0000 0.0000
vn 0.0000 -1.0000 0.0000
vn 0.9625 0.0000 0.2714
vn 1.0000 0.0000 0.0000
vn -0.9625 0.0000 0.2714
vn 0.0000 0.8381 0.5455
vn 0.0000 -0.8381 0.5455
usemtl Texture
s off
f 1/1/1 2/2/1 4/3/1 3/4/1
f 8/5/2 6/6/2 2/7/2 1/8/2
f 7/9/3 4/10/3 2/11/3 6/12/3
f 10/13/2 22/14/2 24/15/2 12/16/2
f 3/17/4 5/18/4 8/19/4 1/20/4
f 9/21/3 7/9/3 6/12/3 12/22/3
f 10/23/5 12/24/5 6/25/5 8/26/5
f 25/27/2 29/28/2 30/29/2 26/30/2
f 23/31/4 22/32/4 10/33/4 11/34/4
f 5/18/4 11/34/4 10/33/4 8/19/4
f 13/35/6 15/36/6 16/37/6 14/38/6
f 20/39/2 13/40/2 14/41/2 18/42/2
f 19/43/3 18/44/3 14/45/3 16/46/3
f 15/47/4 13/48/4 20/49/4 17/50/4
f 21/51/3 24/52/3 18/44/3 19/43/3
f 22/53/7 20/54/7 18/55/7 24/56/7
f 17/50/4 20/49/4 22/32/4 23/31/4
f 26/57/8 30/58/8 32/59/8 28/60/8
f 26/61/1 28/62/1 27/63/1 25/64/1
f 29/65/9 25/66/9 27/67/9 31/68/9
f 33/69/2 37/70/2 38/71/2 34/72/2
f 30/73/6 29/74/6 31/75/6 32/76/6
f 34/77/8 38/78/8 40/79/8 36/80/8
f 34/81/1 36/82/1 35/83/1 33/84/1
f 37/85/9 33/86/9 35/87/9 39/88/9
f 41/89/2 45/90/2 46/91/2 42/92/2
f 38/93/6 37/94/6 39/95/6 40/96/6
f 42/97/8 46/98/8 48/99/8 44/100/8
f 42/101/1 44/102/1 43/103/1 41/104/1
f 45/105/9 41/106/9 43/107/9 47/108/9
f 49/109/2 53/110/2 54/111/2 50/112/2
f 46/113/6 45/114/6 47/115/6 48/116/6
f 50/117/8 54/118/8 56/119/8 52/120/8
f 50/121/1 52/122/1 51/123/1 49/124/1
f 53/125/9 49/126/9 51/127/9 55/128/9
f 57/129/2 61/130/2 62/131/2 58/132/2
f 54/133/6 53/134/6 55/135/6 56/136/6
f 58/137/8 62/138/8 64/139/8 60/140/8
f 58/141/1 60/142/1 59/143/1 57/144/1
f 61/145/9 57/146/9 59/147/9 63/148/9
f 65/149/2 69/150/2 70/151/2 66/152/2
f 62/153/6 61/154/6 63/155/6 64/156/6
f 66/157/8 70/158/8 72/159/8 68/160/8
f 66/161/1 68/162/1 67/163/1 65/164/1
f 69/165/9 65/166/9 67/167/9 71/168/9
f 73/169/2 77/170/2 78/171/2 74/172/2
f 70/173/6 69/174/6 71/175/6 72/176/6
f 74/177/8 78/178/8 80/179/8 76/180/8
f 74/181/1 76/182/1 75/183/1 73/184/1
f 77/185/9 73/186/9 75/187/9 79/188/9
f 81/189/2 85/190/2 86/191/2 82/192/2
f 78/193/6 77/194/6 79/195/6 80/196/6
f 82/197/8 86/198/8 88/199/8 84/200/8
f 82/201/1 84/202/1 83/203/1 81/204/1
f 85/205/9 81/206/9 83/207/9 87/208/9
f 86/209/6 85/210/6 87/211/6 88/212/6
f 12/22/3 24/52/3 21/51/3 9/21/3
