# Blender v2.79 (sub 0) OBJ File: 'Door1.blend'
# www.blender.org
mtllib Door1.mtl
o Door1_Cube.073
v -0.219323 -0.013159 0.036687
v -0.219323 0.903765 0.036687
v -0.219323 0.715268 0.036687
v -0.219323 0.535127 0.036687
v -0.219323 0.354986 0.036687
v -0.152954 0.838401 0.036687
v -0.152954 0.745423 0.036687
v -0.152954 0.679240 0.036687
v -0.152954 0.571155 0.036687
v -0.152954 0.499099 0.036687
v -0.152954 0.391014 0.036687
v -0.152954 0.044694 0.036687
v -0.152954 0.297133 0.036687
v -0.152954 0.838401 0.028849
v -0.152954 0.745423 0.028849
v -0.152954 0.679240 0.028849
v -0.152954 0.571155 0.028849
v -0.152954 0.499099 0.028849
v -0.152954 0.391014 0.028849
v -0.152954 0.044694 0.028849
v -0.152954 0.297133 0.028849
v -0.137647 0.830360 0.028849
v -0.137647 0.753464 0.028849
v -0.137647 0.669632 0.028849
v -0.137647 0.580763 0.028849
v -0.137647 0.489491 0.028849
v -0.137647 0.400622 0.028849
v -0.137647 0.060122 0.028849
v -0.137647 0.281705 0.028849
v -0.137647 0.830360 0.024246
v -0.137647 0.753464 0.024246
v -0.137647 0.669632 0.024246
v -0.137647 0.580763 0.024246
v -0.137647 0.489491 0.024246
v -0.137647 0.400622 0.024246
v -0.137647 0.060122 0.024246
v -0.137647 0.281705 0.024246
v -0.219323 -0.013159 -0.006251
v -0.219323 0.903765 -0.006251
v -0.219323 0.715268 -0.006251
v -0.219323 0.535127 -0.006251
v -0.219323 0.354986 -0.006251
v 0.219323 -0.013159 0.036687
v 0.219323 0.903765 0.036687
v 0.219323 0.715268 0.036687
v 0.219323 0.535127 0.036687
v 0.219323 0.354986 0.036687
v 0.152954 0.838401 0.036687
v 0.152954 0.745423 0.036687
v 0.152954 0.679240 0.036687
v 0.152954 0.571155 0.036687
v 0.152954 0.499099 0.036687
v 0.152954 0.391014 0.036687
v 0.152954 0.044694 0.036687
v 0.152954 0.297133 0.036687
v 0.152954 0.838401 0.028849
v 0.152954 0.745423 0.028849
v 0.152954 0.679240 0.028849
v 0.152954 0.571155 0.028849
v 0.152954 0.499099 0.028849
v 0.152954 0.391014 0.028849
v 0.152954 0.044694 0.028849
v 0.152954 0.297133 0.028849
v 0.137647 0.830360 0.028849
v 0.137647 0.753464 0.028849
v 0.137647 0.669632 0.028849
v 0.137647 0.580763 0.028849
v 0.137647 0.489491 0.028849
v 0.137647 0.400622 0.028849
v 0.137647 0.060122 0.028849
v 0.137647 0.281705 0.028849
v 0.137647 0.830360 0.024246
v 0.137647 0.753464 0.024246
v 0.137647 0.669632 0.024246
v 0.137647 0.580763 0.024246
v 0.137647 0.489491 0.024246
v 0.137647 0.400622 0.024246
v 0.137647 0.060122 0.024246
v 0.137647 0.281705 0.024246
v 0.219323 -0.013159 -0.006251
v 0.219323 0.903765 -0.006251
v 0.219323 0.715268 -0.006251
v 0.219323 0.535127 -0.006251
v 0.219323 0.354986 -0.006251
vt 0.370865 0.548917
vt 0.370865 0.581905
vt 0.359602 0.576628
vt 0.359602 0.560356
vt 0.370865 0.644957
vt 0.370865 0.709385
vt 0.359602 0.699260
vt 0.359602 0.655082
vt 0.296428 0.644957
vt 0.307691 0.638652
vt 0.359602 0.638652
vt 0.370865 0.613431
vt 0.359602 0.607126
vt 0.359602 0.588211
vt 0.450608 0.644599
vt 0.450608 0.625683
vt 0.451938 0.625683
vt 0.451938 0.644599
vt 0.296428 0.581905
vt 0.307691 0.576628
vt 0.409797 0.602453
vt 0.411127 0.602453
vt 0.411127 0.655989
vt 0.409797 0.655989
vt 0.449278 0.644599
vt 0.449278 0.625683
vt 0.450608 0.625683
vt 0.450608 0.644599
vt 0.359602 0.619736
vt 0.307691 0.619736
vt 0.296428 0.613431
vt 0.405715 0.650631
vt 0.407045 0.650631
vt 0.407045 0.704167
vt 0.405715 0.704167
vt 0.403054 0.650631
vt 0.404384 0.650631
vt 0.404384 0.704167
vt 0.403054 0.704167
vt 0.307691 0.655082
vt 0.307691 0.607126
vt 0.307691 0.588211
vt 0.411127 0.655989
vt 0.411127 0.602453
vt 0.412457 0.602453
vt 0.412457 0.655989
vt 0.444987 0.599774
vt 0.444987 0.551596
vt 0.446618 0.548917
vt 0.446618 0.602453
vt 0.370865 0.650631
vt 0.372230 0.653310
vt 0.372230 0.701488
vt 0.370865 0.704167
vt 0.386643 0.704167
vt 0.385279 0.701488
vt 0.428276 0.602453
vt 0.429906 0.599774
vt 0.411127 0.700167
vt 0.411127 0.655989
vt 0.412457 0.655989
vt 0.412457 0.700167
vt 0.307691 0.560356
vt 0.296428 0.548917
vt 0.407137 0.704167
vt 0.407137 0.650631
vt 0.408467 0.650631
vt 0.408467 0.704167
vt 0.408467 0.655989
vt 0.408467 0.602453
vt 0.409797 0.602453
vt 0.409797 0.655989
vt 0.453268 0.641955
vt 0.453268 0.625683
vt 0.454598 0.625683
vt 0.454598 0.641955
vt 0.401724 0.704167
vt 0.401724 0.650631
vt 0.403054 0.650631
vt 0.403054 0.704167
vt 0.404384 0.650631
vt 0.405715 0.650631
vt 0.405715 0.704167
vt 0.404384 0.704167
vt 0.428276 0.548917
vt 0.429906 0.551596
vt 0.457187 0.655989
vt 0.457968 0.655989
vt 0.457968 0.704167
vt 0.457187 0.704167
vt 0.459530 0.704167
vt 0.459530 0.655989
vt 0.460311 0.655989
vt 0.460311 0.704167
vt 0.457968 0.655989
vt 0.458749 0.655989
vt 0.458749 0.704167
vt 0.457968 0.704167
vt 0.452719 0.655412
vt 0.452719 0.641955
vt 0.453500 0.641955
vt 0.453500 0.655412
vt 0.370865 0.548917
vt 0.373483 0.551596
vt 0.373483 0.599774
vt 0.370865 0.602453
vt 0.446618 0.655989
vt 0.428276 0.655989
vt 0.429906 0.653310
vt 0.444987 0.653310
vt 0.428276 0.602453
vt 0.429906 0.605132
vt 0.444987 0.605132
vt 0.446618 0.602453
vt 0.413703 0.602453
vt 0.411085 0.599774
vt 0.385279 0.653310
vt 0.386643 0.650631
vt 0.411085 0.551596
vt 0.413703 0.548917
vt 0.443357 0.704167
vt 0.443357 0.655989
vt 0.456406 0.655989
vt 0.456406 0.704167
vt 0.428276 0.704167
vt 0.428276 0.655989
vt 0.443357 0.655989
vt 0.443357 0.704167
vt 0.386643 0.698809
vt 0.386643 0.650631
vt 0.401724 0.650631
vt 0.401724 0.698809
vt 0.370865 0.650631
vt 0.370865 0.602453
vt 0.408467 0.602453
vt 0.408467 0.650631
vt 0.458749 0.655989
vt 0.459530 0.655989
vt 0.459530 0.704167
vt 0.458749 0.704167
vt 0.412457 0.714362
vt 0.412457 0.698809
vt 0.413238 0.698809
vt 0.413238 0.714362
vt 0.409797 0.655989
vt 0.410578 0.655989
vt 0.410578 0.704167
vt 0.409797 0.704167
vt 0.412457 0.698809
vt 0.412457 0.650631
vt 0.413238 0.650631
vt 0.413238 0.698809
vt 0.461092 0.694767
vt 0.461092 0.655989
vt 0.461873 0.655989
vt 0.461873 0.694767
vt 0.412457 0.650631
vt 0.412457 0.602453
vt 0.413238 0.602453
vt 0.413238 0.650631
vt 0.456406 0.704167
vt 0.456406 0.655989
vt 0.457187 0.655989
vt 0.457187 0.704167
vt 0.446618 0.548917
vt 0.453904 0.548917
vt 0.453904 0.625683
vt 0.446618 0.625683
vt 0.386643 0.714362
vt 0.386643 0.698809
vt 0.387424 0.698809
vt 0.387424 0.714362
vt 0.413703 0.709385
vt 0.413703 0.644957
vt 0.420990 0.644957
vt 0.420990 0.709385
vt 0.413703 0.613431
vt 0.420990 0.613431
vt 0.413703 0.581905
vt 0.413703 0.548917
vt 0.420990 0.548917
vt 0.420990 0.581905
vt 0.453904 0.625683
vt 0.453904 0.548917
vt 0.461190 0.548917
vt 0.461190 0.625683
vt 0.307691 0.699260
vt 0.296428 0.709385
vt 0.447948 0.625683
vt 0.449278 0.625683
vt 0.449278 0.644599
vt 0.447948 0.644599
vt 0.446618 0.625683
vt 0.447948 0.625683
vt 0.447948 0.644599
vt 0.446618 0.644599
vt 0.408467 0.655989
vt 0.409797 0.655989
vt 0.409797 0.700167
vt 0.408467 0.700167
vt 0.451938 0.625683
vt 0.453268 0.625683
vt 0.453268 0.641955
vt 0.451938 0.641955
vt 0.451938 0.641955
vt 0.452719 0.641955
vt 0.452719 0.655412
vt 0.451938 0.655412
vt 0.455379 0.625683
vt 0.456160 0.625683
vt 0.456160 0.641236
vt 0.455379 0.641236
vt 0.460311 0.655989
vt 0.461092 0.655989
vt 0.461092 0.694767
vt 0.460311 0.694767
vt 0.454598 0.625683
vt 0.455379 0.625683
vt 0.455379 0.641236
vt 0.454598 0.641236
vt 0.420990 0.548917
vt 0.428276 0.548917
vt 0.428276 0.613345
vt 0.420990 0.613345
vt 0.428276 0.644871
vt 0.420990 0.644871
vt 0.420990 0.676397
vt 0.428276 0.676397
vt 0.428276 0.709385
vt 0.420990 0.709385
vn -0.0000 0.0000 1.0000
vn 1.0000 0.0000 0.0000
vn 0.0000 1.0000 0.0000
vn 0.0000 -1.0000 0.0000
vn -1.0000 0.0000 0.0000
usemtl Texture
s off
f 2/1/1 3/2/1 7/3/1 6/4/1
f 5/5/1 1/6/1 12/7/1 13/8/1
f 47/9/1 53/10/1 11/11/1 5/5/1
f 3/2/1 4/12/1 9/13/1 8/14/1
f 8/15/2 9/16/2 17/17/2 16/18/2
f 45/19/1 49/20/1 7/3/1 3/2/1
f 54/21/3 62/22/3 20/23/3 12/24/3
f 10/25/2 11/26/2 19/27/2 18/28/2
f 10/29/1 52/30/1 46/31/1 4/12/1
f 53/32/3 61/33/3 19/34/3 11/35/3
f 51/36/3 59/37/3 17/38/3 9/39/3
f 4/12/1 5/5/1 11/11/1 10/29/1
f 13/8/1 55/40/1 47/9/1 5/5/1
f 46/31/1 51/41/1 9/13/1 4/12/1
f 8/14/1 50/42/1 45/19/1 3/2/1
f 14/43/4 56/44/4 48/45/4 6/46/4
f 26/47/1 68/48/1 60/49/1 18/50/1
f 57/51/1 65/52/1 23/53/1 15/54/1
f 14/55/1 15/54/1 23/53/1 22/56/1
f 18/50/1 19/57/1 27/58/1 26/47/1
f 13/59/2 12/60/2 20/61/2 21/62/2
f 6/4/1 48/63/1 44/64/1 2/1/1
f 21/65/4 63/66/4 55/67/4 13/68/4
f 18/69/4 60/70/4 52/71/4 10/72/4
f 6/73/2 7/74/2 15/75/2 14/76/2
f 16/77/4 58/78/4 50/79/4 8/80/4
f 49/81/3 57/82/3 15/83/3 7/84/3
f 61/85/1 69/86/1 27/58/1 19/57/1
f 70/87/3 78/88/3 36/89/3 28/90/3
f 34/91/4 76/92/4 68/93/4 26/94/4
f 65/95/3 73/96/3 31/97/3 23/98/3
f 22/99/2 23/100/2 31/101/2 30/102/2
f 62/103/1 70/104/1 28/105/1 20/106/1
f 16/107/1 17/108/1 25/109/1 24/110/1
f 59/111/1 67/112/1 25/109/1 17/108/1
f 24/110/1 66/113/1 58/114/1 16/107/1
f 21/115/1 20/106/1 28/105/1 29/116/1
f 22/56/1 64/117/1 56/118/1 14/55/1
f 29/116/1 71/119/1 63/120/1 21/115/1
f 31/121/1 73/122/1 72/123/1 30/124/1
f 33/125/1 75/126/1 74/127/1 32/128/1
f 35/129/1 77/130/1 76/131/1 34/132/1
f 36/133/1 78/134/1 79/135/1 37/136/1
f 69/137/3 77/138/3 35/139/3 27/140/3
f 24/141/2 25/142/2 33/143/2 32/144/2
f 67/145/3 75/146/3 33/147/3 25/148/3
f 32/149/4 74/150/4 66/151/4 24/152/4
f 29/153/2 28/154/2 36/155/2 37/156/2
f 30/157/4 72/158/4 64/159/4 22/160/4
f 37/161/4 79/162/4 71/163/4 29/164/4
f 44/165/3 81/166/3 39/167/3 2/168/3
f 26/169/2 27/170/2 35/171/2 34/172/2
f 1/173/5 5/174/5 42/175/5 38/176/5
f 5/174/5 4/177/5 41/178/5 42/175/5
f 3/179/5 2/180/5 39/181/5 40/182/5
f 38/183/4 80/184/4 43/185/4 1/186/4
f 4/177/5 3/179/5 40/182/5 41/178/5
f 44/64/1 48/63/1 49/20/1 45/19/1
f 47/9/1 55/40/1 54/187/1 43/188/1
f 45/19/1 50/42/1 51/41/1 46/31/1
f 50/189/5 58/190/5 59/191/5 51/192/5
f 52/193/5 60/194/5 61/195/5 53/196/5
f 46/31/1 52/30/1 53/10/1 47/9/1
f 56/118/1 64/117/1 65/52/1 57/51/1
f 60/49/1 68/48/1 69/86/1 61/85/1
f 55/197/5 63/198/5 62/199/5 54/200/5
f 48/201/5 56/202/5 57/203/5 49/204/5
f 64/205/5 72/206/5 73/207/5 65/208/5
f 58/114/1 66/113/1 67/112/1 59/111/1
f 63/120/1 71/119/1 70/104/1 62/103/1
f 66/209/5 74/210/5 75/211/5 67/212/5
f 71/213/5 79/214/5 78/215/5 70/216/5
f 68/217/5 76/218/5 77/219/5 69/220/5
f 43/221/2 80/222/2 84/223/2 47/224/2
f 47/224/2 84/223/2 83/225/2 46/226/2
f 45/227/2 82/228/2 81/229/2 44/230/2
f 46/226/2 83/225/2 82/228/2 45/227/2
f 43/188/1 54/187/1 12/7/1 1/6/1
