# Blender v2.79 (sub 0) OBJ File: 'Door2.blend'
# www.blender.org
mtllib Door2.mtl
o Door2_Cube.071
v -0.124852 -0.011435 0.012692
v -0.198836 -0.011435 0.009823
v -0.127486 0.906758 0.012692
v -0.194947 0.906758 0.012692
v -0.124852 -0.011435 -0.009823
v -0.198836 -0.011435 -0.012692
v -0.194947 0.906758 -0.009823
v -0.127486 0.906758 -0.009823
v -0.125306 0.149316 0.012692
v -0.198166 0.149316 0.010318
v -0.125306 0.149316 -0.009823
v -0.198166 0.149316 -0.012198
v -0.125371 0.272506 0.012692
v -0.125371 0.272506 -0.009823
v -0.198069 0.272506 0.010389
v -0.198069 0.272506 -0.012126
v -0.198095 0.266144 0.010369
v -0.198095 0.266144 -0.012146
v -0.133298 0.259602 0.012692
v -0.133298 0.259602 -0.009823
v -0.126367 0.525009 0.012692
v -0.126367 0.525009 -0.009823
v -0.196600 0.525009 0.011473
v -0.196600 0.525009 -0.011042
v -0.126396 0.535442 0.012692
v -0.126396 0.535442 -0.009823
v -0.186866 0.566450 0.011505
v -0.186866 0.566450 -0.011010
v -0.044619 -0.011435 0.012692
v -0.118603 -0.011435 0.009823
v -0.047253 0.906758 0.012692
v -0.114714 0.906758 0.012692
v -0.044619 -0.011435 -0.009823
v -0.118603 -0.011435 -0.012692
v -0.114714 0.906758 -0.009823
v -0.047253 0.906758 -0.009823
v -0.045138 0.172504 0.012692
v -0.045138 0.172504 -0.009823
v -0.113163 0.192598 0.010389
v -0.113163 0.192598 -0.012126
v -0.117862 0.186703 0.010369
v -0.117862 0.186703 -0.012146
v -0.045120 0.166141 0.012692
v -0.045120 0.166141 -0.009823
v -0.046134 0.525009 0.012692
v -0.046134 0.525009 -0.009823
v -0.110553 0.515319 0.011473
v -0.110553 0.515319 -0.011042
v -0.049070 0.589706 0.012692
v -0.049070 0.589706 -0.009823
v -0.116323 0.535442 0.011505
v -0.116323 0.535442 -0.011010
v -0.040695 -0.011435 0.009823
v -0.036807 0.906758 0.012692
v -0.040695 -0.011435 -0.012692
v -0.036807 0.906758 -0.009823
v -0.040025 0.149316 0.010318
v -0.040025 0.149316 -0.012198
v -0.039929 0.172504 0.010389
v -0.039929 0.172504 -0.012126
v -0.035282 0.163805 0.010369
v -0.035282 0.163805 -0.012146
v -0.038542 0.505244 0.011412
v -0.038542 0.505244 -0.011103
v -0.038459 0.525009 0.011473
v -0.038459 0.525009 -0.011042
v -0.032602 0.549977 0.011505
v -0.032602 0.549977 -0.011010
v 0.124852 -0.011435 0.012692
v 0.198836 -0.011435 0.009823
v 0.127486 0.906758 0.012692
v 0.194947 0.906758 0.012692
v 0.124852 -0.011435 -0.009823
v 0.198836 -0.011435 -0.012692
v 0.194947 0.906758 -0.009823
v 0.127486 0.906758 -0.009823
v 0.125306 0.149316 0.012692
v 0.198166 0.149316 0.010318
v 0.125306 0.149316 -0.009823
v 0.198166 0.149316 -0.012198
v 0.125371 0.272506 0.012692
v 0.125371 0.272506 -0.009823
v 0.198069 0.272506 0.010389
v 0.198069 0.272506 -0.012126
v 0.198095 0.266144 0.010369
v 0.198095 0.266144 -0.012146
v 0.133298 0.259602 0.012692
v 0.133298 0.259602 -0.009823
v 0.126367 0.525009 0.012692
v 0.126367 0.525009 -0.009823
v 0.196600 0.525009 0.011473
v 0.196600 0.525009 -0.011042
v 0.126396 0.535442 0.012692
v 0.126396 0.535442 -0.009823
v 0.186866 0.566450 0.011505
v 0.186866 0.566450 -0.011010
v 0.044619 -0.011435 0.012692
v 0.118603 -0.011435 0.009823
v 0.047253 0.906758 0.012692
v 0.114714 0.906758 0.012692
v 0.044619 -0.011435 -0.009823
v 0.118603 -0.011435 -0.012692
v 0.114714 0.906758 -0.009823
v 0.047253 0.906758 -0.009823
v 0.045138 0.172504 0.012692
v 0.045138 0.172504 -0.009823
v 0.113163 0.192598 0.010389
v 0.113163 0.192598 -0.012126
v 0.117862 0.186703 0.010369
v 0.117862 0.186703 -0.012146
v 0.045120 0.166141 0.012692
v 0.045120 0.166141 -0.009823
v 0.046134 0.525009 0.012692
v 0.046134 0.525009 -0.009823
v 0.110553 0.515319 0.011473
v 0.110553 0.515319 -0.011042
v 0.049070 0.589706 0.012692
v 0.049070 0.589706 -0.009823
v 0.116323 0.535442 0.011505
v 0.116323 0.535442 -0.011010
v 0.040695 -0.011435 0.009823
v 0.036807 0.906758 0.012692
v 0.040695 -0.011435 -0.012692
v 0.036807 0.906758 -0.009823
v 0.040025 0.149316 0.010318
v 0.040025 0.149316 -0.012198
v 0.039929 0.172504 0.010389
v 0.039929 0.172504 -0.012126
v 0.035282 0.163805 0.010369
v 0.035282 0.163805 -0.012146
v 0.038542 0.505244 0.011412
v 0.038542 0.505244 -0.011103
v 0.038459 0.525009 0.011473
v 0.038459 0.525009 -0.011042
v 0.032602 0.549977 0.011505
v 0.032602 0.549977 -0.011010
vt 0.371827 0.678475
vt 0.390262 0.678475
vt 0.390431 0.707198
vt 0.371712 0.707198
vt 0.447636 0.609473
vt 0.441939 0.609473
vt 0.441939 0.543132
vt 0.447636 0.543132
vt 0.453329 0.597676
vt 0.447636 0.597832
vt 0.447636 0.584602
vt 0.453329 0.584447
vt 0.396207 0.571865
vt 0.390511 0.571852
vt 0.390512 0.543132
vt 0.396209 0.543145
vt 0.453329 0.569730
vt 0.459025 0.569730
vt 0.459025 0.581784
vt 0.453329 0.581784
vt 0.396128 0.592738
vt 0.390431 0.592725
vt 0.447636 0.707178
vt 0.441939 0.707178
vt 0.441939 0.678458
vt 0.447636 0.678458
vt 0.373849 0.658769
vt 0.390244 0.657600
vt 0.441939 0.656448
vt 0.441939 0.611336
vt 0.447636 0.611336
vt 0.447636 0.656448
vt 0.372095 0.611345
vt 0.389866 0.611345
vt 0.390237 0.656463
vt 0.371843 0.656463
vt 0.447636 0.658773
vt 0.441939 0.658773
vt 0.396128 0.593875
vt 0.390431 0.593862
vt 0.372103 0.609481
vt 0.387403 0.603940
vt 0.396178 0.646367
vt 0.390481 0.646355
vt 0.390506 0.638973
vt 0.396203 0.638986
vt 0.396209 0.707189
vt 0.390512 0.707176
vt 0.372379 0.543132
vt 0.389448 0.543133
vt 0.441939 0.599784
vt 0.436243 0.599784
vt 0.436243 0.543132
vt 0.441939 0.543132
vt 0.453329 0.611061
vt 0.447636 0.611217
vt 0.447636 0.597988
vt 0.453329 0.597832
vt 0.436243 0.707178
vt 0.436243 0.675452
vt 0.441939 0.675452
vt 0.441939 0.707178
vt 0.447636 0.624371
vt 0.453333 0.624371
vt 0.453333 0.636425
vt 0.447636 0.636425
vt 0.334400 0.675469
vt 0.352805 0.671795
vt 0.352992 0.707198
vt 0.334273 0.707198
vt 0.436243 0.674316
vt 0.436243 0.611336
vt 0.441939 0.611336
vt 0.441939 0.674316
vt 0.334656 0.611345
vt 0.350956 0.613076
vt 0.351616 0.670741
vt 0.334404 0.674331
vt 0.407684 0.579587
vt 0.401988 0.579574
vt 0.401987 0.578532
vt 0.407684 0.578544
vt 0.335400 0.599785
vt 0.352416 0.609481
vt 0.407695 0.640850
vt 0.401999 0.640837
vt 0.402006 0.637228
vt 0.407703 0.637241
vt 0.407701 0.707189
vt 0.402004 0.707176
vt 0.334940 0.543132
vt 0.352010 0.543133
vt 0.314184 0.675886
vt 0.296329 0.675886
vt 0.295153 0.674331
vt 0.315359 0.674331
vt 0.315553 0.707198
vt 0.294960 0.707198
vt 0.295129 0.678475
vt 0.315384 0.678475
vt 0.419132 0.571865
vt 0.413435 0.571852
vt 0.413437 0.543132
vt 0.419134 0.543145
vt 0.453333 0.543132
vt 0.453333 0.557675
vt 0.447636 0.557675
vt 0.447636 0.543132
vt 0.419133 0.574442
vt 0.413436 0.574430
vt 0.295504 0.614876
vt 0.315008 0.614876
vt 0.295525 0.611345
vt 0.314987 0.611345
vt 0.419127 0.635455
vt 0.413431 0.635442
vt 0.413435 0.575995
vt 0.419131 0.576007
vt 0.419127 0.638986
vt 0.413430 0.638973
vt 0.297007 0.606884
vt 0.313505 0.606884
vt 0.419115 0.643433
vt 0.413419 0.643420
vt 0.419134 0.707189
vt 0.413437 0.707176
vt 0.447636 0.624371
vt 0.447636 0.611217
vt 0.453333 0.611217
vt 0.453333 0.624371
vt 0.402006 0.543132
vt 0.407703 0.543145
vt 0.334158 0.678475
vt 0.334273 0.707198
vt 0.315553 0.707198
vt 0.315722 0.678475
vt 0.436243 0.640838
vt 0.436243 0.707178
vt 0.430546 0.707178
vt 0.430546 0.640838
vt 0.453329 0.557831
vt 0.453329 0.571061
vt 0.447636 0.570905
vt 0.447636 0.557675
vt 0.401985 0.678456
vt 0.401987 0.707176
vt 0.396291 0.707189
vt 0.396288 0.678469
vt 0.447636 0.648479
vt 0.447636 0.636425
vt 0.453333 0.636425
vt 0.453333 0.648479
vt 0.401906 0.657583
vt 0.396209 0.657596
vt 0.436243 0.543132
vt 0.436243 0.571853
vt 0.430546 0.571853
vt 0.430546 0.543132
vt 0.332135 0.658769
vt 0.315740 0.657600
vt 0.430546 0.593863
vt 0.436243 0.593862
vt 0.436243 0.638974
vt 0.430546 0.638974
vt 0.333889 0.611345
vt 0.334141 0.656463
vt 0.315747 0.656463
vt 0.316118 0.611345
vt 0.436243 0.591538
vt 0.430546 0.591538
vt 0.401906 0.656447
vt 0.396209 0.656459
vt 0.333881 0.609481
vt 0.318581 0.603940
vt 0.401956 0.603954
vt 0.401981 0.611336
vt 0.396284 0.611348
vt 0.396259 0.603967
vt 0.401987 0.543132
vt 0.396291 0.543145
vt 0.333605 0.543132
vt 0.316536 0.543133
vt 0.430546 0.650527
vt 0.430546 0.707178
vt 0.424849 0.707178
vt 0.424849 0.650527
vt 0.453329 0.571217
vt 0.453329 0.584447
vt 0.447636 0.584291
vt 0.447636 0.571061
vt 0.424849 0.543132
vt 0.430546 0.543132
vt 0.430546 0.574858
vt 0.424849 0.574858
vt 0.453329 0.569730
vt 0.453329 0.557675
vt 0.459025 0.557675
vt 0.459025 0.569730
vt 0.371584 0.675469
vt 0.371712 0.707198
vt 0.352992 0.707198
vt 0.353179 0.671795
vt 0.424849 0.575995
vt 0.430546 0.575995
vt 0.430546 0.638974
vt 0.424849 0.638974
vt 0.371328 0.611345
vt 0.371580 0.674331
vt 0.354368 0.670741
vt 0.355028 0.613076
vt 0.413400 0.670734
vt 0.413400 0.671777
vt 0.407703 0.671790
vt 0.407703 0.670747
vt 0.370585 0.599785
vt 0.353568 0.609481
vt 0.413411 0.609472
vt 0.413419 0.613081
vt 0.407722 0.613093
vt 0.407714 0.609484
vt 0.413417 0.543132
vt 0.407720 0.543145
vt 0.371044 0.543132
vt 0.353975 0.543133
vt 0.424847 0.678456
vt 0.424849 0.707176
vt 0.419152 0.707189
vt 0.419150 0.678469
vt 0.424848 0.675879
vt 0.419152 0.675892
vt 0.424842 0.614867
vt 0.424847 0.674314
vt 0.419150 0.674326
vt 0.419145 0.614879
vt 0.424842 0.611336
vt 0.419145 0.611348
vt 0.424831 0.606888
vt 0.419134 0.606901
vt 0.424849 0.543132
vt 0.419152 0.543145
vt 0.413419 0.707176
vt 0.407722 0.707189
vt 0.295943 0.543132
vt 0.314569 0.543132
vn -0.0357 -0.0015 0.9994
vn 1.0000 0.0029 0.0000
vn 0.0000 -1.0000 0.0000
vn -1.0000 0.0042 0.0000
vn 0.0000 1.0000 0.0000
vn -1.0000 0.0006 0.0000
vn 1.0000 0.0028 0.0000
vn -0.0342 -0.0014 0.9994
vn 1.0000 0.0039 0.0000
vn -0.0246 -0.0021 0.9997
vn 0.8521 -0.5234 -0.0000
vn 0.9974 0.0723 0.0000
vn -0.0330 0.0126 0.9994
vn -0.0178 0.0027 0.9998
vn -0.9735 0.2287 -0.0000
vn -0.9997 -0.0237 0.0000
vn -0.0097 -0.0018 1.0000
vn 1.0000 -0.0057 0.0000
vn -0.0356 -0.0014 0.9994
vn -0.0267 -0.0015 0.9996
vn -0.0300 0.0099 0.9995
vn -0.7819 0.6234 0.0000
vn -0.0172 -0.0021 0.9998
vn -0.9613 -0.2757 0.0000
vn -1.0000 0.0043 0.0000
vn -0.0081 -0.0017 1.0000
vn 0.9990 0.0453 0.0000
vn 0.0000 -0.0023 1.0000
vn 0.0000 -0.0031 1.0000
vn -0.9504 0.3111 0.0000
vn 0.0000 -0.0036 1.0000
vn -0.8821 -0.4711 -0.0000
vn 0.0000 -0.0013 1.0000
vn -0.9736 0.2284 -0.0000
vn -0.9999 -0.0118 0.0000
vn -1.0000 0.0037 0.0000
vn -1.0000 0.0058 -0.0000
vn -1.0000 0.0081 -0.0000
vn 0.0357 -0.0015 0.9994
vn -1.0000 0.0029 0.0000
vn 1.0000 0.0042 0.0000
vn 1.0000 0.0006 0.0000
vn -1.0000 0.0028 0.0000
vn 0.0342 -0.0014 0.9994
vn -1.0000 0.0039 0.0000
vn 0.0246 -0.0021 0.9997
vn -0.8521 -0.5234 -0.0000
vn -0.9974 0.0723 0.0000
vn 0.0330 0.0126 0.9994
vn 0.0178 0.0027 0.9998
vn 0.9735 0.2287 -0.0000
vn 0.9997 -0.0237 0.0000
vn 0.0097 -0.0018 1.0000
vn -1.0000 -0.0057 0.0000
vn 0.0356 -0.0014 0.9994
vn 0.0267 -0.0015 0.9996
vn 0.0300 0.0099 0.9995
vn 0.7819 0.6234 0.0000
vn 0.0172 -0.0021 0.9998
vn 0.9613 -0.2757 0.0000
vn 1.0000 0.0043 0.0000
vn 0.0081 -0.0017 1.0000
vn -0.9990 0.0453 0.0000
vn 0.9504 0.3111 0.0000
vn 0.8821 -0.4711 -0.0000
vn 0.9736 0.2284 -0.0000
vn 0.9999 -0.0118 0.0000
vn 1.0000 0.0037 0.0000
vn 1.0000 0.0058 -0.0000
vn 1.0000 0.0081 -0.0000
vn 0.0000 -0.0033 1.0000
usemtl Texture
s off
f 9/1/1 10/2/1 2/3/1 1/4/1
f 25/5/2 26/6/2 8/7/2 3/8/2
f 2/9/3 6/10/3 5/11/3 1/12/3
f 10/13/4 12/14/4 6/15/4 2/16/4
f 3/17/5 8/18/5 7/19/5 4/20/5
f 17/21/6 18/22/6 12/14/6 10/13/6
f 1/23/7 5/24/7 11/25/7 9/26/7
f 19/27/8 17/28/8 10/2/8 9/1/8
f 14/29/9 22/30/9 21/31/9 13/32/9
f 21/33/10 23/34/10 15/35/10 13/36/10
f 19/37/11 20/38/11 14/29/11 13/32/11
f 9/26/12 11/25/12 20/38/12 19/37/12
f 13/36/13 15/35/13 17/28/13 19/27/13
f 15/39/4 16/40/4 18/22/4 17/21/4
f 25/41/14 27/42/14 23/34/14 21/33/14
f 27/43/15 28/44/15 24/45/15 23/46/15
f 4/47/16 7/48/16 28/44/16 27/43/16
f 3/49/17 4/50/17 27/42/17 25/41/17
f 21/31/7 22/30/7 26/6/7 25/5/7
f 49/51/18 50/52/18 36/53/18 31/54/18
f 30/55/3 34/56/3 33/57/3 29/58/3
f 33/59/7 44/60/7 43/61/7 29/62/7
f 31/63/5 36/64/5 35/65/5 32/66/5
f 43/67/19 41/68/19 30/69/19 29/70/19
f 38/71/7 46/72/7 45/73/7 37/74/7
f 45/75/20 47/76/20 39/77/20 37/78/20
f 43/61/7 44/60/7 38/71/7 37/74/7
f 37/78/21 39/77/21 41/68/21 43/67/21
f 39/79/22 40/80/22 42/81/22 41/82/22
f 49/83/23 51/84/23 47/76/23 45/75/23
f 51/85/24 52/86/24 48/87/24 47/88/24
f 32/89/25 35/90/25 52/86/25 51/85/25
f 31/91/26 32/92/26 51/84/26 49/83/26
f 45/73/27 46/72/27 50/52/27 49/51/27
f 61/93/28 129/94/28 127/95/28 59/96/28
f 53/97/29 121/98/29 125/99/29 57/100/29
f 57/101/4 58/102/4 55/103/4 53/104/4
f 121/105/3 53/106/3 55/107/3 123/108/3
f 61/109/30 62/110/30 58/102/30 57/101/30
f 59/96/29 127/95/29 131/111/29 63/112/29
f 63/112/29 131/111/29 133/113/29 65/114/29
f 63/115/4 64/116/4 60/117/4 59/118/4
f 57/100/31 125/99/31 129/94/31 61/93/31
f 59/118/32 60/117/32 62/110/32 61/109/32
f 65/119/4 66/120/4 64/116/4 63/115/4
f 65/114/33 133/113/33 135/121/33 67/122/33
f 67/123/34 68/124/34 66/120/34 65/119/34
f 54/125/35 56/126/35 68/124/35 67/123/35
f 54/127/5 122/128/5 124/129/5 56/130/5
f 41/82/36 42/81/36 34/131/36 30/132/36
f 23/46/37 24/45/37 16/40/37 15/39/37
f 47/88/38 48/87/38 40/80/38 39/79/38
f 77/133/39 69/134/39 70/135/39 78/136/39
f 93/137/40 71/138/40 76/139/40 94/140/40
f 70/141/3 69/142/3 73/143/3 74/144/3
f 78/145/41 70/146/41 74/147/41 80/148/41
f 71/149/5 72/150/5 75/151/5 76/152/5
f 85/153/42 78/145/42 80/148/42 86/154/42
f 69/155/43 77/156/43 79/157/43 73/158/43
f 87/159/44 77/133/44 78/136/44 85/160/44
f 82/161/45 81/162/45 89/163/45 90/164/45
f 89/165/46 81/166/46 83/167/46 91/168/46
f 87/169/47 81/162/47 82/161/47 88/170/47
f 77/156/48 87/169/48 88/170/48 79/157/48
f 81/166/49 87/159/49 85/160/49 83/167/49
f 83/171/41 85/153/41 86/154/41 84/172/41
f 93/173/50 89/165/50 91/168/50 95/174/50
f 95/175/51 91/176/51 92/177/51 96/178/51
f 72/179/52 95/175/52 96/178/52 75/180/52
f 71/181/53 93/173/53 95/174/53 72/182/53
f 89/163/43 93/137/43 94/140/43 90/164/43
f 117/183/54 99/184/54 104/185/54 118/186/54
f 98/187/3 97/188/3 101/189/3 102/190/3
f 101/191/43 97/192/43 111/193/43 112/194/43
f 99/195/5 100/196/5 103/197/5 104/198/5
f 111/199/55 97/200/55 98/201/55 109/202/55
f 106/203/43 105/204/43 113/205/43 114/206/43
f 113/207/56 105/208/56 107/209/56 115/210/56
f 111/193/43 105/204/43 106/203/43 112/194/43
f 105/208/57 111/199/57 109/202/57 107/209/57
f 107/211/58 109/212/58 110/213/58 108/214/58
f 117/215/59 113/207/59 115/210/59 119/216/59
f 119/217/60 115/218/60 116/219/60 120/220/60
f 100/221/61 119/217/61 120/220/61 103/222/61
f 99/223/62 117/215/62 119/216/62 100/224/62
f 113/205/63 117/183/63 118/186/63 114/206/63
f 125/225/41 121/226/41 123/227/41 126/228/41
f 129/229/64 125/225/64 126/228/64 130/230/64
f 131/231/41 127/232/41 128/233/41 132/234/41
f 127/232/65 129/229/65 130/230/65 128/233/65
f 133/235/41 131/231/41 132/234/41 134/236/41
f 135/237/66 133/235/66 134/236/66 136/238/66
f 122/239/67 135/237/67 136/238/67 124/240/67
f 109/212/68 98/241/68 102/242/68 110/213/68
f 91/176/69 83/171/69 84/172/69 92/177/69
f 115/218/70 107/211/70 108/214/70 116/219/70
f 67/122/71 135/121/71 122/243/71 54/244/71
