# Blender v2.79 (sub 0) OBJ File: 'Pipe_Straight.blend'
# www.blender.org
mtllib Pipe_Straight.mtl
o Pipe_Straight_Cylinder.005
v -0.661308 -0.028870 -0.000000
v -0.661308 -0.012382 0.028558
v -0.661308 0.020594 0.028558
v -0.661308 0.037082 -0.000000
v -0.661308 0.020594 -0.028558
v -0.661308 -0.012382 -0.028558
v -0.687072 -0.042602 -0.000000
v -0.696538 -0.029102 0.028558
v -0.715470 -0.002103 0.028558
v -0.724937 0.011397 -0.000000
v -0.715470 -0.002103 -0.028558
v -0.696538 -0.029102 -0.028558
v -0.695303 -0.058882 -0.000000
v -0.709831 -0.058882 0.028558
v -0.738888 -0.058882 0.028558
v -0.753416 -0.058882 -0.000000
v -0.738888 -0.058882 -0.028558
v -0.709831 -0.058882 -0.028558
v 0.661308 -0.028870 0.000000
v 0.661308 -0.012382 0.028558
v 0.661308 0.020594 0.028558
v 0.661308 0.037082 0.000000
v 0.661308 0.020594 -0.028558
v 0.661308 -0.012382 -0.028558
v 0.687072 -0.042602 0.000000
v 0.696538 -0.029102 0.028558
v 0.715470 -0.002103 0.028558
v 0.724937 0.011397 0.000000
v 0.715470 -0.002103 -0.028558
v 0.696538 -0.029102 -0.028558
v 0.695303 -0.058882 0.000000
v 0.709831 -0.058882 0.028558
v 0.738888 -0.058882 0.028558
v 0.753416 -0.058882 0.000000
v 0.738888 -0.058882 -0.028558
v 0.709831 -0.058882 -0.028558
vt 0.355433 0.955603
vt 0.346714 0.955603
vt 0.346714 0.812654
vt 0.355433 0.812654
vt 0.329504 0.955603
vt 0.329504 0.812654
vt 0.367729 0.815353
vt 0.383873 0.816354
vt 0.395110 0.894945
vt 0.378966 0.893944
vt 0.397104 0.814426
vt 0.408341 0.893017
vt 0.415349 0.808077
vt 0.432193 0.808077
vt 0.432193 0.951025
vt 0.415349 0.951025
vt 0.452987 0.804270
vt 0.468355 0.805701
vt 0.460527 0.810310
vt 0.443674 0.809587
vt 0.352715 0.806801
vt 0.359854 0.808847
vt 0.415349 0.894133
vt 0.404677 0.896836
vt 0.487164 0.810126
vt 0.470968 0.811136
vt 0.468355 0.807728
vt 0.485527 0.807494
vt 0.336296 0.805778
vt 0.434427 0.953810
vt 0.418068 0.954833
vt 0.445455 0.831069
vt 0.452420 0.831123
vt 0.456581 0.834477
vt 0.443674 0.834477
vt 0.467406 0.812143
vt 0.468355 0.815660
vt 0.462712 0.816932
vt 0.486756 0.824629
vt 0.486756 0.830784
vt 0.470527 0.829950
vt 0.470413 0.824987
vt 0.446477 0.817762
vt 0.367729 0.804270
vt 0.367729 0.807410
vt 0.443674 0.819607
vt 0.457044 0.817762
vt 0.470413 0.819245
vt 0.470413 0.822571
vt 0.457044 0.824416
vt 0.443674 0.822933
vt 0.471633 0.804270
vt 0.487164 0.805552
vt 0.377494 0.810071
vt 0.392519 0.811809
vt 0.359854 0.959410
vt 0.352715 0.961456
vt 0.403513 0.811355
vt 0.489222 0.818773
vt 0.487585 0.821405
vt 0.470413 0.821171
vt 0.473026 0.817762
vt 0.336296 0.962480
vt 0.418069 0.804270
vt 0.434427 0.805293
vt 0.467706 0.831069
vt 0.469487 0.834477
vt 0.456581 0.834477
vt 0.460741 0.831123
vt 0.415102 0.807098
vt 0.415349 0.808824
vt 0.484698 0.817762
vt 0.468355 0.817404
vt 0.468469 0.812441
vt 0.484698 0.811607
vt 0.405450 0.804270
vt 0.367729 0.960847
vt 0.367729 0.963987
vt 0.470413 0.829225
vt 0.457044 0.831069
vt 0.443674 0.829587
vt 0.443674 0.826260
vt 0.457044 0.824416
vt 0.470413 0.825898
vt 0.489222 0.823346
vt 0.473691 0.824629
vt 0.443674 0.808077
vt 0.443674 0.951025
vn -0.0000 0.0000 1.0000
vn 0.0000 0.8660 0.5000
vn 0.0000 0.8660 -0.5000
vn 0.0000 0.0000 -1.0000
vn -0.0000 -0.8660 -0.5000
vn -0.3331 0.8110 -0.4810
vn 0.3924 -0.7860 0.4777
vn -0.3331 0.8110 0.4810
vn 0.3924 -0.7860 -0.4777
vn 0.8165 -0.3816 -0.4332
vn -0.8351 0.3411 0.4315
vn -0.8351 0.3411 -0.4315
vn -0.0000 -1.0000 0.0000
vn 0.8165 -0.3816 0.4332
vn 0.3331 0.8110 -0.4810
vn -0.3924 -0.7860 0.4777
vn 0.3331 0.8110 0.4810
vn -0.3924 -0.7860 -0.4777
vn -0.8165 -0.3816 -0.4332
vn 0.8351 0.3411 0.4315
vn 0.8351 0.3411 -0.4315
vn -0.8165 -0.3816 0.4332
vn -0.0000 -0.8660 0.5000
usemtl Texture
s off
f 20/1/1 21/2/1 3/3/1 2/4/1
f 21/2/2 22/5/2 4/6/2 3/3/2
f 22/7/3 23/8/3 5/9/3 4/10/3
f 23/8/4 24/11/4 6/12/4 5/9/4
f 24/13/5 19/14/5 1/15/5 6/16/5
f 4/17/6 5/18/6 11/19/6 10/20/6
f 2/4/1 3/3/1 9/21/1 8/22/1
f 5/9/4 6/12/4 12/23/4 11/24/4
f 1/25/7 2/26/7 8/27/7 7/28/7
f 3/3/8 4/6/8 10/29/8 9/21/8
f 6/16/9 1/15/9 7/30/9 12/31/9
f 7/32/10 13/33/10 18/34/10 12/35/10
f 11/19/4 12/36/4 18/37/4 17/38/4
f 10/39/11 16/40/11 15/41/11 9/42/11
f 11/19/12 17/38/12 16/43/12 10/20/12
f 9/21/1 15/44/1 14/45/1 8/22/1
f 13/46/13 14/47/13 15/48/13 16/49/13 17/50/13 18/51/13
f 8/27/14 14/52/14 13/53/14 7/28/14
f 22/7/15 28/54/15 29/55/15 23/8/15
f 20/1/1 26/56/1 27/57/1 21/2/1
f 23/8/4 29/55/4 30/58/4 24/11/4
f 19/59/16 25/60/16 26/61/16 20/62/16
f 21/2/17 27/57/17 28/63/17 22/5/17
f 24/13/18 30/64/18 25/65/18 19/14/18
f 25/66/19 30/67/19 36/68/19 31/69/19
f 29/55/4 35/70/4 36/71/4 30/58/4
f 28/72/20 27/73/20 33/74/20 34/75/20
f 29/55/21 28/54/21 34/76/21 35/70/21
f 27/57/1 26/56/1 32/77/1 33/78/1
f 31/79/13 36/80/13 35/81/13 34/82/13 33/83/13 32/84/13
f 26/61/22 25/60/22 31/85/22 32/86/22
f 19/14/23 20/87/23 2/88/23 1/15/23
