# Blender v2.79 (sub 0) OBJ File: 'Pipe_Straight_Short.blend'
# www.blender.org
mtllib Pipe_Straight_Short.mtl
o Pipe_Straight_Short_Cylinder.000
v -0.229674 -0.028870 -0.000000
v -0.229674 -0.012382 0.028558
v -0.229674 0.020594 0.028558
v -0.229674 0.037082 -0.000000
v -0.229674 0.020594 -0.028558
v -0.229674 -0.012382 -0.028558
v -0.255438 -0.042602 -0.000000
v -0.264904 -0.029102 0.028558
v -0.283836 -0.002103 0.028558
v -0.293303 0.011397 -0.000000
v -0.283836 -0.002103 -0.028558
v -0.264904 -0.029102 -0.028558
v -0.263669 -0.058882 -0.000000
v -0.278197 -0.058882 0.028558
v -0.307254 -0.058882 0.028558
v -0.321782 -0.058882 -0.000000
v -0.307254 -0.058882 -0.028558
v -0.278197 -0.058882 -0.028558
v 0.213324 -0.028870 0.000000
v 0.213324 -0.012382 0.028558
v 0.213324 0.020594 0.028558
v 0.213324 0.037082 0.000000
v 0.213324 0.020594 -0.028558
v 0.213324 -0.012382 -0.028558
v 0.239088 -0.042602 0.000000
v 0.248554 -0.029102 0.028558
v 0.267487 -0.002103 0.028558
v 0.276953 0.011397 0.000000
v 0.267487 -0.002103 -0.028558
v 0.248554 -0.029102 -0.028558
v 0.247319 -0.058882 0.000000
v 0.261847 -0.058882 0.028558
v 0.290904 -0.058882 0.028558
v 0.305432 -0.058882 0.000000
v 0.290904 -0.058882 -0.028558
v 0.261847 -0.058882 -0.028558
vt 0.353650 0.898129
vt 0.344616 0.898129
vt 0.344616 0.839916
vt 0.353650 0.839916
vt 0.340098 0.898129
vt 0.340098 0.839916
vt 0.366389 0.839916
vt 0.370907 0.839916
vt 0.370907 0.898129
vt 0.366389 0.898129
vt 0.379941 0.839916
vt 0.379941 0.898129
vt 0.392680 0.832442
vt 0.400504 0.832442
vt 0.400504 0.890655
vt 0.392680 0.890655
vt 0.377125 0.905246
vt 0.373426 0.906490
vt 0.350834 0.832799
vt 0.358231 0.835286
vt 0.384522 0.902758
vt 0.408328 0.890655
vt 0.408328 0.895284
vt 0.400504 0.894040
vt 0.347135 0.831555
vt 0.392680 0.895284
vt 0.388220 0.901514
vt 0.392680 0.902596
vt 0.392680 0.904505
vt 0.392680 0.908323
vt 0.366389 0.827812
vt 0.366389 0.829721
vt 0.392680 0.910233
vt 0.366389 0.833540
vt 0.408328 0.830291
vt 0.415423 0.827812
vt 0.422519 0.829544
vt 0.422519 0.833754
vt 0.415423 0.836233
vt 0.408328 0.834502
vt 0.366389 0.835449
vt 0.361929 0.836530
vt 0.373426 0.831555
vt 0.377125 0.832799
vt 0.358231 0.902758
vt 0.350834 0.905246
vt 0.384522 0.835286
vt 0.400504 0.829056
vt 0.408328 0.827812
vt 0.408328 0.832442
vt 0.347135 0.906490
vt 0.392680 0.827812
vt 0.388220 0.836530
vt 0.392680 0.833540
vt 0.392680 0.835449
vt 0.392680 0.829721
vt 0.366389 0.908323
vt 0.366389 0.910233
vt 0.392680 0.827812
vt 0.366389 0.904505
vt 0.422519 0.842175
vt 0.415423 0.844654
vt 0.408328 0.842923
vt 0.408328 0.838712
vt 0.415423 0.836233
vt 0.422519 0.837964
vt 0.361929 0.901514
vt 0.366389 0.902596
vn -0.0000 0.0000 1.0000
vn 0.0000 0.8660 0.5000
vn 0.0000 0.8660 -0.5000
vn 0.0000 0.0000 -1.0000
vn -0.0000 -0.8660 -0.5000
vn -0.3331 0.8110 -0.4810
vn 0.3924 -0.7860 0.4777
vn -0.3331 0.8110 0.4810
vn 0.3924 -0.7860 -0.4777
vn 0.8165 -0.3816 -0.4332
vn -0.8351 0.3411 0.4315
vn -0.8351 0.3411 -0.4315
vn -0.0000 -1.0000 0.0000
vn 0.8165 -0.3816 0.4332
vn 0.3331 0.8110 -0.4810
vn -0.3924 -0.7860 0.4777
vn 0.3331 0.8110 0.4810
vn -0.3924 -0.7860 -0.4777
vn -0.8165 -0.3816 -0.4332
vn 0.8351 0.3411 0.4315
vn 0.8351 0.3411 -0.4315
vn -0.8165 -0.3816 0.4332
vn -0.0000 -0.8660 0.5000
usemtl Texture
s off
f 20/1/1 21/2/1 3/3/1 2/4/1
f 21/2/2 22/5/2 4/6/2 3/3/2
f 22/7/3 23/8/3 5/9/3 4/10/3
f 23/8/4 24/11/4 6/12/4 5/9/4
f 24/13/5 19/14/5 1/15/5 6/16/5
f 4/10/6 5/9/6 11/17/6 10/18/6
f 2/4/1 3/3/1 9/19/1 8/20/1
f 5/9/4 6/12/4 12/21/4 11/17/4
f 1/15/7 2/22/7 8/23/7 7/24/7
f 3/3/8 4/6/8 10/25/8 9/19/8
f 6/16/9 1/15/9 7/24/9 12/26/9
f 7/27/10 13/28/10 18/29/10 12/21/10
f 11/17/4 12/21/4 18/29/4 17/30/4
f 10/25/11 16/31/11 15/32/11 9/19/11
f 11/17/12 17/30/12 16/33/12 10/18/12
f 9/19/1 15/32/1 14/34/1 8/20/1
f 13/35/13 14/36/13 15/37/13 16/38/13 17/39/13 18/40/13
f 8/20/14 14/34/14 13/41/14 7/42/14
f 22/7/15 28/43/15 29/44/15 23/8/15
f 20/1/1 26/45/1 27/46/1 21/2/1
f 23/8/4 29/44/4 30/47/4 24/11/4
f 19/14/16 25/48/16 26/49/16 20/50/16
f 21/2/17 27/46/17 28/51/17 22/5/17
f 24/13/18 30/52/18 25/48/18 19/14/18
f 25/53/19 30/47/19 36/54/19 31/55/19
f 29/44/4 35/56/4 36/54/4 30/47/4
f 28/51/20 27/46/20 33/57/20 34/58/20
f 29/44/21 28/43/21 34/59/21 35/56/21
f 27/46/1 26/45/1 32/60/1 33/57/1
f 31/61/13 36/62/13 35/63/13 34/64/13 33/65/13 32/66/13
f 26/45/22 25/67/22 31/68/22 32/60/22
f 19/14/23 20/50/23 2/22/23 1/15/23
