# Blender v2.79 (sub 0) OBJ File: 'Stairs_Roof.blend'
# www.blender.org
mtllib Stairs_Roof.mtl
o Stairs_Roof_Cube.006
v -0.422752 0.090199 -0.240352
v -0.422752 -0.090199 -0.240352
v -0.422752 0.090199 -0.065794
v -0.422752 -0.090199 -0.065794
v -0.422752 0.041064 -0.068202
v -0.422752 -0.090199 -0.068202
v -0.422752 0.041064 0.087279
v -0.422752 -0.090199 0.087279
v -0.422752 -0.007126 0.084871
v -0.422752 -0.090199 0.084871
v -0.422752 -0.007126 0.240352
v -0.422752 -0.090199 0.240352
v 0.422752 0.090199 -0.240352
v 0.422752 -0.090199 -0.240352
v 0.415314 0.090199 -0.065794
v 0.415314 -0.090199 -0.065794
v 0.415314 0.041064 -0.068202
v 0.415314 -0.090199 -0.068202
v 0.415314 0.041064 0.087279
v 0.415314 -0.090199 0.087279
v 0.415314 -0.007126 0.084871
v 0.415314 -0.090199 0.084871
v 0.415314 -0.007126 0.240352
v 0.415314 -0.090199 0.240352
v 0.369051 1.004061 0.681378
v 0.369051 1.055469 0.681378
v -0.377729 1.004061 0.681378
v -0.377729 1.055469 0.681378
v -0.004339 1.055469 0.681378
v -0.004339 1.004061 0.681378
v -0.004339 1.055469 -0.264873
v 0.369051 1.055469 -0.264873
v -0.004339 1.004061 -0.264873
v 0.369051 1.004061 -0.264873
v -0.377729 1.055469 -0.264873
v -0.377729 1.004061 -0.264873
v -0.367692 1.032033 0.657090
v -0.308591 1.032033 0.657090
v -0.308591 1.032033 0.596794
v -0.367692 1.032033 0.596794
v -0.315270 -0.110467 0.650276
v -0.361013 -0.110467 0.650276
v -0.315270 -0.110467 0.603609
v -0.361013 -0.110467 0.603609
v -0.367692 0.945865 0.596794
v -0.367692 0.945865 0.657090
v -0.308591 0.945865 0.657090
v -0.308591 0.945865 0.596794
v -0.361013 0.930836 0.603609
v -0.361013 0.930836 0.650276
v -0.315270 0.930836 0.650276
v -0.315270 0.930836 0.603609
v 0.297118 1.032033 0.657090
v 0.356220 1.032033 0.657090
v 0.356220 1.032033 0.596794
v 0.297118 1.032033 0.596794
v 0.349540 -0.110467 0.650276
v 0.303797 -0.110467 0.650276
v 0.349540 -0.110467 0.603609
v 0.303797 -0.110467 0.603609
v 0.297118 0.945865 0.596794
v 0.297118 0.945865 0.657090
v 0.356220 0.945865 0.657090
v 0.356220 0.945865 0.596794
v 0.303797 0.930836 0.603609
v 0.303797 0.930836 0.650276
v 0.349540 0.930836 0.650276
v 0.349540 0.930836 0.603609
vt 0.160147 0.851246
vt 0.170590 0.851246
vt 0.170590 0.899213
vt 0.160147 0.899213
vt 0.083574 0.857012
vt 0.083574 0.905405
vt 0.073440 0.905405
vt 0.073440 0.857438
vt 0.109225 0.857012
vt 0.109225 0.904979
vt 0.101627 0.904979
vt 0.101627 0.857012
vt 0.149150 0.877624
vt 0.139016 0.877624
vt 0.139016 0.867334
vt 0.149150 0.867334
vt 0.109225 0.857012
vt 0.116823 0.857012
vt 0.116823 0.904979
vt 0.109225 0.904979
vt 0.092600 0.857012
vt 0.092600 0.904979
vt 0.083574 0.904979
vt 0.083574 0.857012
vt 0.175398 0.802853
vt 0.175398 0.850820
vt 0.170590 0.850820
vt 0.170590 0.802853
vt 0.156746 0.857012
vt 0.156746 0.865911
vt 0.149152 0.865911
vt 0.149152 0.857012
vt 0.170590 0.851246
vt 0.175398 0.851246
vt 0.175398 0.899213
vt 0.170590 0.899213
vt 0.101627 0.857012
vt 0.101627 0.904979
vt 0.092600 0.904979
vt 0.092600 0.857012
vt 0.139016 0.886523
vt 0.139016 0.877624
vt 0.143823 0.877624
vt 0.143823 0.886523
vt 0.149152 0.857044
vt 0.149152 0.867334
vt 0.139016 0.867302
vt 0.139016 0.857012
vt 0.156745 0.876235
vt 0.149150 0.876233
vt 0.149150 0.867334
vt 0.156745 0.867336
vt 0.153957 0.885136
vt 0.149150 0.885134
vt 0.149150 0.876235
vt 0.153957 0.876237
vt 0.160147 0.851246
vt 0.160147 0.802853
vt 0.170590 0.802853
vt 0.170590 0.851246
vt 0.138854 0.119137
vt 0.142217 0.119137
vt 0.142217 0.143284
vt 0.138854 0.143284
vt 0.138854 0.167431
vt 0.142217 0.167431
vt 0.138854 0.119137
vt 0.138854 0.143284
vt 0.135492 0.143284
vt 0.135492 0.119137
vt 0.138854 0.167431
vt 0.135492 0.167431
vt 0.141600 0.119137
vt 0.117108 0.119137
vt 0.117108 0.057944
vt 0.141600 0.057944
vt 0.166092 0.119137
vt 0.166092 0.057944
vt 0.135492 0.180330
vt 0.132131 0.180330
vt 0.132131 0.119137
vt 0.135492 0.119137
vt 0.117108 0.119137
vt 0.092616 0.119137
vt 0.092616 0.057944
vt 0.117108 0.057944
vt 0.128771 0.119137
vt 0.132131 0.119138
vt 0.132131 0.180331
vt 0.128771 0.180330
vt 0.068123 0.119137
vt 0.068123 0.057944
vt 0.147254 0.881075
vt 0.147254 0.884526
vt 0.143823 0.884526
vt 0.143823 0.881075
vt 0.156612 0.878906
vt 0.153957 0.878906
vt 0.153957 0.876235
vt 0.156612 0.876235
vt 0.189004 0.862250
vt 0.186295 0.862250
vt 0.186295 0.802853
vt 0.189004 0.802853
vt 0.123297 0.916439
vt 0.120642 0.916439
vt 0.120642 0.857012
vt 0.123297 0.857012
vt 0.178502 0.862250
vt 0.175792 0.862251
vt 0.175792 0.802854
vt 0.178502 0.802853
vt 0.126728 0.916439
vt 0.124073 0.916439
vt 0.124073 0.857012
vt 0.126728 0.857012
vt 0.127116 0.922244
vt 0.123685 0.922244
vt 0.123685 0.917326
vt 0.127116 0.917326
vt 0.178899 0.868054
vt 0.175398 0.868055
vt 0.175398 0.863140
vt 0.178899 0.863138
vt 0.123685 0.922244
vt 0.120254 0.922244
vt 0.120254 0.917326
vt 0.123685 0.917326
vt 0.189400 0.868054
vt 0.185900 0.868054
vt 0.185900 0.863139
vt 0.189400 0.863139
vt 0.147254 0.877624
vt 0.147254 0.881075
vt 0.143823 0.881075
vt 0.143823 0.877624
vt 0.156612 0.881577
vt 0.153957 0.881577
vt 0.153957 0.878906
vt 0.156612 0.878906
vt 0.185504 0.862250
vt 0.182795 0.862250
vt 0.182795 0.802853
vt 0.185504 0.802853
vt 0.192443 0.862280
vt 0.189788 0.862280
vt 0.189788 0.802853
vt 0.192443 0.802853
vt 0.182002 0.862250
vt 0.179293 0.862251
vt 0.179293 0.802854
vt 0.182002 0.802853
vt 0.117211 0.862817
vt 0.119866 0.862817
vt 0.119866 0.922244
vt 0.117211 0.922244
vt 0.116823 0.857012
vt 0.120254 0.857012
vt 0.120254 0.861930
vt 0.116823 0.861930
vt 0.182399 0.868054
vt 0.178899 0.868055
vt 0.178899 0.863140
vt 0.182399 0.863138
vt 0.192831 0.868085
vt 0.189400 0.868085
vt 0.189400 0.863167
vt 0.192831 0.863167
vt 0.185900 0.868054
vt 0.182399 0.868054
vt 0.182399 0.863139
vt 0.185900 0.863139
vn 0.0000 0.0000 1.0000
vn 0.0000 1.0000 0.0000
vn 0.0000 0.0000 -1.0000
vn -1.0000 0.0000 0.0000
vn 0.9991 0.0000 0.0426
vn 1.0000 -0.0000 0.0000
vn 0.0000 -1.0000 0.0000
vn 0.0000 -0.4130 -0.9108
vn 0.9138 -0.4061 0.0000
vn 0.0000 -0.4130 0.9108
vn -0.9138 -0.4061 0.0000
usemtl Texture
s off
f 16/1/1 15/2/1 3/3/1 4/4/1
f 13/5/2 1/6/2 3/7/2 15/8/2
f 18/9/3 6/10/3 5/11/3 17/12/3
f 2/13/4 4/14/4 3/15/4 1/16/4
f 20/17/1 19/18/1 7/19/1 8/20/1
f 17/21/2 5/22/2 7/23/2 19/24/2
f 22/25/3 10/26/3 9/27/3 21/28/3
f 6/29/4 8/30/4 7/31/4 5/32/4
f 24/33/1 23/34/1 11/35/1 12/36/1
f 21/37/2 9/38/2 11/39/2 23/40/2
f 10/41/4 12/42/4 11/43/4 9/44/4
f 14/45/5 13/46/5 15/47/5 16/48/5
f 18/49/6 17/50/6 19/51/6 20/52/6
f 22/53/6 21/54/6 23/55/6 24/56/6
f 14/57/3 2/58/3 1/59/3 13/60/3
f 25/61/1 26/62/1 29/63/1 30/64/1
f 27/65/1 30/64/1 29/63/1 28/66/1
f 34/67/3 33/68/3 31/69/3 32/70/3
f 36/71/3 35/72/3 31/69/3 33/68/3
f 30/73/7 27/74/7 36/75/7 33/76/7
f 25/77/7 30/73/7 33/76/7 34/78/7
f 27/79/4 28/80/4 35/81/4 36/82/4
f 28/83/2 29/84/2 31/85/2 35/86/2
f 26/87/6 25/88/6 34/89/6 32/90/6
f 29/84/2 26/91/2 32/92/2 31/85/2
f 38/93/2 39/94/2 40/95/2 37/96/2
f 41/97/7 42/98/7 44/99/7 43/100/7
f 50/101/4 49/102/4 44/103/4 42/104/4
f 51/105/1 50/106/1 42/107/1 41/108/1
f 52/109/6 51/110/6 41/111/6 43/112/6
f 49/113/3 52/114/3 43/115/3 44/116/3
f 40/117/3 39/118/3 48/119/3 45/120/3
f 39/121/6 38/122/6 47/123/6 48/124/6
f 38/125/1 37/126/1 46/127/1 47/128/1
f 37/129/4 40/130/4 45/131/4 46/132/4
f 45/120/8 48/119/8 52/114/8 49/113/8
f 48/124/9 47/123/9 51/110/9 52/109/9
f 47/128/10 46/127/10 50/106/10 51/105/10
f 46/132/11 45/131/11 49/102/11 50/101/11
f 54/133/2 55/134/2 56/135/2 53/136/2
f 57/137/7 58/138/7 60/139/7 59/140/7
f 66/141/4 65/142/4 60/143/4 58/144/4
f 67/145/1 66/146/1 58/147/1 57/148/1
f 68/149/6 67/150/6 57/151/6 59/152/6
f 65/153/3 68/154/3 59/155/3 60/156/3
f 56/157/3 55/158/3 64/159/3 61/160/3
f 55/161/6 54/162/6 63/163/6 64/164/6
f 54/165/1 53/166/1 62/167/1 63/168/1
f 53/169/4 56/170/4 61/171/4 62/172/4
f 61/160/8 64/159/8 68/154/8 65/153/8
f 64/164/9 63/163/9 67/150/9 68/149/9
f 63/168/10 62/167/10 66/146/10 67/145/10
f 62/172/11 61/171/11 65/142/11 66/141/11
