# Blender v2.79 (sub 0) OBJ File: 'Window_Roof.blend'
# www.blender.org
mtllib Window_Roof.mtl
o Window_Roof_Cube.057
v -0.014060 0.138863 -0.003047
v -0.014060 -0.165921 -0.003047
v -0.014060 0.018393 -0.003047
v -0.014060 0.018393 -0.017691
v -0.129808 0.018393 -0.003047
v -0.014060 0.033874 -0.003047
v -0.014060 0.033874 -0.017691
v -0.129808 0.033874 -0.017691
v -0.129808 0.033874 -0.003047
v -0.129808 0.018393 -0.017691
v -0.014060 -0.165921 -0.017691
v -0.129808 -0.165921 -0.017691
v -0.129808 0.126754 -0.017691
v -0.014060 0.138863 -0.017691
v -0.001240 -0.165921 -0.003047
v -0.001240 0.140204 -0.003047
v 0.011579 0.138863 -0.003047
v 0.011580 -0.165921 -0.003047
v 0.011580 0.018393 -0.003047
v -0.001240 0.018393 -0.003047
v 0.011580 0.018393 -0.017691
v 0.127327 0.018393 -0.003047
v 0.011580 0.033874 -0.003047
v 0.011580 0.033874 -0.017691
v -0.001240 0.033874 -0.003047
v 0.127327 0.033874 -0.017691
v 0.127327 0.033874 -0.003047
v 0.127327 0.018393 -0.017691
v 0.011580 -0.165921 -0.017691
v 0.127327 -0.165921 -0.017691
v 0.127327 0.126754 -0.017691
v 0.011579 0.138863 -0.017691
v -0.125028 -0.159366 0.001793
v -0.125028 0.126113 0.001793
v -0.013584 0.138050 0.001793
v -0.013584 -0.159366 0.001793
v -0.125028 0.019293 0.001793
v -0.125028 0.034553 0.001793
v -0.152607 -0.187951 0.001793
v -0.152607 0.146063 0.001793
v -0.030072 0.159188 0.001793
v -0.030072 -0.187951 0.001793
v -0.152607 0.028612 0.001793
v -0.152607 0.045392 0.001793
v -0.152607 -0.187951 -0.054642
v -0.152607 0.146063 -0.054642
v -0.030072 0.159188 -0.054642
v -0.030072 -0.187951 -0.054642
v -0.152607 0.028612 -0.054642
v -0.152607 0.045392 -0.054642
v -0.125028 -0.159366 -0.017371
v -0.125028 0.126113 -0.017371
v -0.013584 0.138050 -0.017371
v -0.013584 -0.159366 -0.017371
v -0.125028 0.019293 -0.017371
v -0.125028 0.034553 -0.017371
v 0.122547 -0.159366 0.001793
v 0.122547 0.126113 0.001793
v -0.001241 -0.159366 0.001793
v -0.001241 0.139372 0.001793
v 0.011103 0.138050 0.001793
v 0.011103 -0.159366 0.001793
v 0.122547 0.019293 0.001793
v 0.122547 0.034553 0.001793
v 0.150126 -0.187951 0.001793
v 0.150126 0.146063 0.001793
v -0.001241 -0.187951 0.001793
v -0.001241 0.160641 0.001793
v 0.027591 0.159188 0.001793
v 0.027591 -0.187951 0.001793
v 0.150126 0.028612 0.001793
v 0.150126 0.045392 0.001793
v 0.150126 -0.187951 -0.054642
v 0.150126 0.146063 -0.054642
v -0.001241 -0.187951 -0.054642
v -0.001241 0.160641 -0.054642
v 0.027591 0.159188 -0.054642
v 0.027591 -0.187951 -0.054642
v 0.150126 0.028612 -0.054642
v 0.150126 0.045392 -0.054642
v 0.122547 -0.159366 -0.017371
v 0.122547 0.126113 -0.017371
v -0.001241 -0.159366 -0.017371
v -0.001241 0.139372 -0.017371
v 0.011103 0.138050 -0.017371
v 0.011103 -0.159366 -0.017371
v 0.122547 0.019293 -0.017371
v 0.122547 0.034553 -0.017371
v -0.158231 -0.243426 0.028113
v -0.158231 -0.183814 0.028113
v -0.158231 -0.243426 -0.112168
v -0.158231 -0.183814 -0.112168
v 0.154621 -0.243426 0.028113
v 0.154621 -0.183814 0.028113
v 0.154621 -0.243426 -0.112168
v 0.154621 -0.183814 -0.112168
v -0.158231 -0.233219 0.028113
v -0.158231 -0.233219 -0.112168
v 0.154621 -0.233219 -0.112168
v 0.154621 -0.233219 0.028113
v 0.154621 -0.233219 0.040884
v 0.154621 -0.243426 0.040884
v -0.158231 -0.243426 0.040884
v -0.158231 -0.233219 0.040884
v -0.180125 0.243426 -0.001118
v 0.180125 0.243426 -0.001118
v -0.180125 0.243426 -0.033177
v 0.180125 0.243426 -0.033177
v 0.180125 0.086136 0.112168
v -0.180125 0.086136 0.112168
v -0.180125 0.086136 -0.033177
v 0.180125 0.086136 -0.033177
v 0.128661 0.243426 -0.001118
v 0.077196 0.243426 -0.001118
v 0.025732 0.243426 -0.001118
v -0.025732 0.243426 -0.001118
v -0.077196 0.243426 -0.001118
v -0.128661 0.243426 -0.001118
v 0.128661 0.243426 -0.033177
v 0.077196 0.243426 -0.033177
v 0.025732 0.243426 -0.033177
v -0.025732 0.243426 -0.033177
v -0.077196 0.243426 -0.033177
v -0.128661 0.243426 -0.033177
v 0.128661 0.086136 0.112168
v 0.077196 0.086136 0.112168
v 0.025732 0.086136 0.112168
v -0.025732 0.086136 0.112168
v -0.077196 0.086136 0.112168
v -0.128661 0.086136 0.112168
vt 0.880293 0.571516
vt 0.882285 0.573690
vt 0.865864 0.588430
vt 0.863872 0.586256
vt 0.935929 0.564314
vt 0.935929 0.542374
vt 0.938734 0.542374
vt 0.938734 0.564314
vt 0.884103 0.572057
vt 0.897786 0.586985
vt 0.895794 0.588430
vt 0.944343 0.542374
vt 0.944343 0.564314
vt 0.941539 0.564314
vt 0.941539 0.542374
vt 0.883159 0.691650
vt 0.883159 0.656714
vt 0.885964 0.656714
vt 0.885964 0.691650
vt 0.882111 0.569884
vt 0.880354 0.691650
vt 0.880354 0.656714
vt 0.883159 0.656714
vt 0.883159 0.691650
vt 0.858394 0.544007
vt 0.856575 0.545639
vt 0.391546 0.061562
vt 0.391546 0.022356
vt 0.416425 0.022356
vt 0.416425 0.061562
vt 0.362751 0.175291
vt 0.340185 0.175291
vt 0.342788 0.150670
vt 0.362751 0.150670
vt 0.853299 0.687649
vt 0.853299 0.667749
vt 0.856104 0.667749
vt 0.856104 0.687649
vt 0.883930 0.568251
vt 0.900350 0.553511
vt 0.902343 0.555685
vt 0.885922 0.570425
vt 0.860213 0.542374
vt 0.938734 0.542374
vt 0.941539 0.542374
vt 0.941539 0.564314
vt 0.938734 0.564314
vt 0.899432 0.585164
vt 0.944343 0.542374
vt 0.947148 0.542374
vt 0.947148 0.564314
vt 0.944343 0.564314
vt 0.406890 0.074041
vt 0.431769 0.074041
vt 0.431769 0.113246
vt 0.406890 0.113246
vt 0.396559 0.140588
vt 0.396559 0.165209
vt 0.376596 0.165209
vt 0.373993 0.140588
vt 0.810010 0.667749
vt 0.812815 0.667749
vt 0.812815 0.687649
vt 0.810010 0.687649
vt 0.851293 0.548919
vt 0.856575 0.545137
vt 0.856575 0.564219
vt 0.851293 0.566274
vt 0.829948 0.603031
vt 0.851293 0.603031
vt 0.856575 0.608449
vt 0.833106 0.608449
vt 0.829948 0.546656
vt 0.833106 0.542650
vt 0.851293 0.569166
vt 0.856575 0.567400
vt 0.827584 0.603031
vt 0.827584 0.608449
vt 0.827584 0.546406
vt 0.827584 0.542374
vt 0.937633 0.680748
vt 0.937633 0.657522
vt 0.948442 0.657522
vt 0.948442 0.680748
vt 0.916015 0.645628
vt 0.926824 0.645628
vt 0.926824 0.686677
vt 0.916015 0.686677
vt 0.916015 0.642448
vt 0.926824 0.642448
vt 0.948993 0.594675
vt 0.948993 0.600140
vt 0.938184 0.600140
vt 0.938184 0.594675
vt 0.937633 0.652057
vt 0.948442 0.652057
vt 0.916015 0.623366
vt 0.926824 0.623366
vt 0.948993 0.623366
vt 0.938184 0.623366
vt 0.906810 0.701841
vt 0.906810 0.684486
vt 0.910480 0.684486
vt 0.910480 0.701841
vt 0.876684 0.703641
vt 0.876684 0.682517
vt 0.880354 0.682517
vt 0.880354 0.703641
vt 0.914150 0.673533
vt 0.914150 0.694657
vt 0.910480 0.694657
vt 0.910480 0.673533
vt 0.906810 0.681594
vt 0.906810 0.647730
vt 0.910480 0.647730
vt 0.910480 0.681594
vt 0.876684 0.680177
vt 0.880354 0.680177
vt 0.914150 0.671193
vt 0.910480 0.671193
vt 0.803875 0.548919
vt 0.803875 0.566274
vt 0.798593 0.564219
vt 0.798593 0.545137
vt 0.825220 0.603031
vt 0.822062 0.608449
vt 0.798593 0.608449
vt 0.803875 0.603031
vt 0.822062 0.542650
vt 0.825220 0.546656
vt 0.803875 0.569166
vt 0.798593 0.567400
vt 0.937633 0.623366
vt 0.948442 0.623366
vt 0.948442 0.646592
vt 0.937633 0.646592
vt 0.926824 0.664415
vt 0.926824 0.623366
vt 0.937633 0.623366
vt 0.937633 0.664415
vt 0.926824 0.667595
vt 0.937633 0.667595
vt 0.938184 0.589210
vt 0.948993 0.589210
vt 0.926824 0.686677
vt 0.937633 0.686677
vt 0.938184 0.565984
vt 0.948993 0.565984
vt 0.955134 0.555082
vt 0.958804 0.555082
vt 0.958804 0.572436
vt 0.955134 0.572436
vt 0.876684 0.656714
vt 0.880354 0.656714
vt 0.880354 0.677838
vt 0.876684 0.677838
vt 0.914150 0.668853
vt 0.910480 0.668853
vt 0.910480 0.647730
vt 0.914150 0.647730
vt 0.955134 0.575329
vt 0.958804 0.575329
vt 0.958804 0.609193
vt 0.955134 0.609193
vt 0.922930 0.832848
vt 0.930270 0.832848
vt 0.930270 0.853474
vt 0.922930 0.853474
vt 0.831081 0.950724
vt 0.823741 0.950724
vt 0.823741 0.930099
vt 0.831081 0.930099
vt 0.947316 0.939792
vt 0.939976 0.939792
vt 0.939976 0.893794
vt 0.947316 0.893794
vt 0.892085 0.912692
vt 0.892085 0.866695
vt 0.912926 0.866695
vt 0.912926 0.912692
vt 0.823741 0.928221
vt 0.823741 0.882223
vt 0.844582 0.882223
vt 0.844582 0.928221
vt 0.832597 0.930099
vt 0.831081 0.928221
vt 0.832597 0.928221
vt 0.832597 0.950724
vt 0.921414 0.832848
vt 0.921414 0.853474
vt 0.947316 0.893794
vt 0.948832 0.893794
vt 0.948832 0.939792
vt 0.947316 0.939792
vt 0.868073 0.882223
vt 0.868073 0.928221
vt 0.866175 0.928221
vt 0.866175 0.882223
vt 0.921414 0.830971
vt 0.922930 0.830971
vt 0.914823 0.866695
vt 0.914823 0.912692
vt 0.868717 0.912095
vt 0.892085 0.912095
vt 0.892085 0.919661
vt 0.868717 0.919661
vt 0.945166 0.848394
vt 0.940403 0.848394
vt 0.940403 0.840828
vt 0.945166 0.840828
vt 0.844582 0.905349
vt 0.844582 0.882223
vt 0.849345 0.882223
vt 0.866175 0.905349
vt 0.844582 0.928475
vt 0.861413 0.905349
vt 0.866175 0.905349
vt 0.866175 0.928475
vt 0.945166 0.893794
vt 0.940403 0.893794
vt 0.940403 0.886227
vt 0.945166 0.886227
vt 0.184166 0.165010
vt 0.177408 0.165010
vt 0.177408 0.154274
vt 0.184166 0.154274
vt 0.945166 0.878661
vt 0.940403 0.878661
vt 0.940403 0.871094
vt 0.945166 0.871094
vt 0.184166 0.143538
vt 0.177408 0.143538
vt 0.177408 0.132801
vt 0.184166 0.132801
vt 0.945166 0.863527
vt 0.940403 0.863527
vt 0.940403 0.855961
vt 0.945166 0.855961
vt 0.184166 0.122065
vt 0.177408 0.122065
vt 0.177408 0.111329
vt 0.184166 0.111329
vt 0.868717 0.866695
vt 0.892085 0.866695
vt 0.892085 0.874261
vt 0.868717 0.874261
vt 0.075693 0.148032
vt 0.108850 0.148032
vt 0.108850 0.158768
vt 0.075693 0.158768
vt 0.868717 0.881828
vt 0.892085 0.881828
vt 0.892085 0.889395
vt 0.868717 0.889395
vt 0.075693 0.169504
vt 0.108850 0.169504
vt 0.108850 0.180240
vt 0.075693 0.180240
vt 0.868717 0.896961
vt 0.892085 0.896961
vt 0.892085 0.904528
vt 0.868717 0.904528
vt 0.075693 0.190977
vt 0.108850 0.190977
vt 0.108850 0.201713
vt 0.075693 0.201713
vn 0.0000 0.0000 1.0000
vn 0.0000 1.0000 0.0000
vn 0.0000 -1.0000 0.0000
vn 1.0000 -0.0000 0.0000
vn -1.0000 0.0000 0.0000
vn -0.1065 0.9943 0.0000
vn -0.0504 0.9987 0.0000
vn 0.1065 -0.9943 0.0000
vn 0.1065 0.9943 0.0000
vn 0.0504 0.9987 0.0000
vn -0.1065 -0.9943 0.0000
vn 0.0000 0.5844 0.8114
usemtl Texture
s off
f 3/1/1 6/2/1 9/3/1 5/4/1
f 9/5/2 6/6/2 7/7/2 8/8/2
f 25/9/1 16/10/1 1/11/1 6/2/1
f 3/12/3 5/13/3 10/14/3 4/15/3
f 29/16/4 21/17/4 19/18/4 18/19/4
f 20/20/1 25/9/1 6/2/1 3/1/1
f 2/21/5 3/22/5 4/23/5 11/24/5
f 15/25/1 20/20/1 3/1/1 2/26/1
f 30/27/1 28/28/1 21/29/1 29/30/1
f 7/31/1 14/32/1 13/33/1 8/34/1
f 6/35/5 1/36/5 14/37/5 7/38/5
f 19/39/1 22/40/1 27/41/1 23/42/1
f 15/25/1 18/43/1 19/39/1 20/20/1
f 27/44/2 26/45/2 24/46/2 23/47/2
f 25/9/1 23/42/1 17/48/1 16/10/1
f 19/49/3 21/50/3 28/51/3 22/52/3
f 4/53/1 10/54/1 12/55/1 11/56/1
f 20/20/1 19/39/1 23/42/1 25/9/1
f 24/57/1 26/58/1 31/59/1 32/60/1
f 23/61/4 24/62/4 32/63/4 17/64/4
f 34/65/1 40/66/1 44/67/1 38/68/1
f 36/69/1 33/70/1 39/71/1 42/72/1
f 34/65/1 35/73/1 41/74/1 40/66/1
f 37/75/1 43/76/1 39/71/1 33/70/1
f 38/68/1 44/67/1 43/76/1 37/75/1
f 59/77/1 36/69/1 42/72/1 67/78/1
f 35/73/1 60/79/1 68/80/1 41/74/1
f 40/81/6 41/82/6 47/83/6 46/84/6
f 43/85/5 49/86/5 45/87/5 39/88/5
f 44/89/5 50/90/5 49/86/5 43/85/5
f 67/91/3 42/92/3 48/93/3 75/94/3
f 41/82/7 68/95/7 76/96/7 47/83/7
f 40/97/5 46/98/5 50/90/5 44/89/5
f 42/92/3 39/99/3 45/100/3 48/93/3
f 34/101/4 38/102/4 56/103/4 52/104/4
f 33/105/2 36/106/2 54/107/2 51/108/2
f 35/109/8 34/110/8 52/111/8 53/112/8
f 37/113/4 33/114/4 51/115/4 55/116/4
f 38/102/4 37/113/4 55/116/4 56/103/4
f 36/106/2 59/117/2 83/118/2 54/107/2
f 60/119/8 35/109/8 53/112/8 84/120/8
f 58/121/1 64/122/1 72/123/1 66/124/1
f 62/125/1 70/126/1 65/127/1 57/128/1
f 58/121/1 66/124/1 69/129/1 61/130/1
f 63/131/1 57/128/1 65/127/1 71/132/1
f 64/122/1 63/131/1 71/132/1 72/123/1
f 59/77/1 67/78/1 70/126/1 62/125/1
f 61/130/1 69/129/1 68/80/1 60/79/1
f 66/133/9 74/134/9 77/135/9 69/136/9
f 71/137/4 65/138/4 73/139/4 79/140/4
f 72/141/4 71/137/4 79/140/4 80/142/4
f 67/91/3 75/94/3 78/143/3 70/144/3
f 69/136/10 77/135/10 76/96/10 68/95/10
f 66/145/4 72/141/4 80/142/4 74/146/4
f 70/144/3 78/143/3 73/147/3 65/148/3
f 58/149/5 82/150/5 88/151/5 64/152/5
f 57/153/2 81/154/2 86/155/2 62/156/2
f 61/157/11 85/158/11 82/159/11 58/160/11
f 63/161/5 87/162/5 81/163/5 57/164/5
f 64/152/5 88/151/5 87/162/5 63/161/5
f 62/156/2 86/155/2 83/118/2 59/117/2
f 60/119/11 84/120/11 85/158/11 61/157/11
f 97/165/5 90/166/5 92/167/5 98/168/5
f 99/169/4 96/170/4 94/171/4 100/172/4
f 100/173/1 94/174/1 90/175/1 97/176/1
f 91/177/3 95/178/3 93/179/3 89/180/3
f 96/181/2 92/182/2 90/183/2 94/184/2
f 93/185/4 100/172/4 101/186/4 102/187/4
f 95/188/4 99/169/4 100/172/4 93/185/4
f 89/189/5 97/165/5 98/168/5 91/190/5
f 102/191/1 101/192/1 104/193/1 103/194/1
f 100/195/2 97/196/2 104/197/2 101/198/2
f 97/165/5 89/189/5 103/199/5 104/200/5
f 89/180/3 93/179/3 102/201/3 103/202/3
f 130/203/12 118/204/12 105/205/12 110/206/12
f 119/207/2 113/208/2 106/209/2 108/210/2
f 112/211/4 108/212/4 106/213/4 109/214/4
f 110/215/5 105/216/5 107/217/5 111/218/5
f 107/219/2 105/220/2 118/221/2 124/222/2
f 124/223/2 118/224/2 117/225/2 123/226/2
f 123/227/2 117/228/2 116/229/2 122/230/2
f 122/231/2 116/232/2 115/233/2 121/234/2
f 121/235/2 115/236/2 114/237/2 120/238/2
f 120/239/2 114/240/2 113/241/2 119/242/2
f 109/243/12 106/244/12 113/245/12 125/246/12
f 125/247/12 113/248/12 114/249/12 126/250/12
f 126/251/12 114/252/12 115/253/12 127/254/12
f 127/255/12 115/256/12 116/257/12 128/258/12
f 128/259/12 116/260/12 117/261/12 129/262/12
f 129/263/12 117/264/12 118/265/12 130/266/12
