# Blender v2.79 (sub 0) OBJ File: 'Window.blend'
# www.blender.org
mtllib Window.mtl
o Window_Cube.000
v -0.012820 0.151776 0.023378
v -0.012820 -0.156276 0.023378
v -0.012820 0.031307 0.023378
v -0.012820 0.031307 0.008734
v -0.128568 0.031307 0.023378
v -0.012820 0.046787 0.023378
v -0.012820 0.046787 0.008734
v -0.128568 0.046787 0.008734
v -0.128568 0.046787 0.023378
v -0.128568 0.031307 0.008734
v -0.012820 -0.156276 0.008734
v -0.128568 -0.144167 0.008734
v -0.128568 0.139667 0.008734
v -0.012820 0.151776 0.008734
v 0.000000 -0.157617 0.023378
v 0.000000 0.153117 0.023378
v 0.012820 0.151776 0.023378
v 0.012820 -0.156276 0.023378
v 0.012820 0.031307 0.023378
v 0.000000 0.031307 0.023378
v 0.012820 0.031307 0.008734
v 0.128568 0.031307 0.023378
v 0.012820 0.046787 0.023378
v 0.012820 0.046787 0.008734
v 0.000000 0.046787 0.023378
v 0.128568 0.046787 0.008734
v 0.128568 0.046787 0.023378
v 0.128568 0.031307 0.008734
v 0.012820 -0.156276 0.008734
v 0.128568 -0.144167 0.008734
v 0.128568 0.139667 0.008734
v 0.012820 0.151776 0.008734
v -0.123788 -0.139026 0.028217
v -0.123788 0.139026 0.028217
v -0.012343 0.150963 0.028217
v -0.012343 -0.150963 0.028217
v -0.123788 0.032206 0.028217
v -0.123788 0.047467 0.028217
v -0.151367 -0.158977 0.028217
v -0.151367 0.158977 0.028217
v -0.028831 0.172101 0.028217
v -0.028831 -0.172101 0.028217
v -0.151367 0.041525 0.028217
v -0.151367 0.058305 0.028217
v -0.151367 -0.158977 -0.028217
v -0.151367 0.158977 -0.028217
v -0.028831 0.172101 -0.028217
v -0.028831 -0.172101 -0.028217
v -0.151367 0.041525 -0.028217
v -0.151367 0.058305 -0.028217
v -0.123788 -0.139026 0.009054
v -0.123788 0.139026 0.009054
v -0.012343 0.150963 0.009054
v -0.012343 -0.150963 0.009054
v -0.123788 0.032206 0.009054
v -0.123788 0.047467 0.009054
v 0.123787 -0.139026 0.028217
v 0.123787 0.139026 0.028217
v -0.000000 -0.152285 0.028217
v -0.000000 0.152285 0.028217
v 0.012343 0.150963 0.028217
v 0.012343 -0.150963 0.028217
v 0.123787 0.032206 0.028217
v 0.123787 0.047467 0.028217
v 0.151367 -0.158977 0.028217
v 0.151367 0.158977 0.028217
v -0.000000 -0.173555 0.028217
v -0.000000 0.173555 0.028217
v 0.028831 0.172101 0.028217
v 0.028831 -0.172101 0.028217
v 0.151367 0.041525 0.028217
v 0.151367 0.058305 0.028217
v 0.151367 -0.158977 -0.028217
v 0.151367 0.158977 -0.028217
v -0.000000 -0.173555 -0.028217
v -0.000000 0.173555 -0.028217
v 0.028831 0.172101 -0.028217
v 0.028831 -0.172101 -0.028217
v 0.151367 0.041525 -0.028217
v 0.151367 0.058305 -0.028217
v 0.123787 -0.139026 0.009054
v 0.123787 0.139026 0.009054
v -0.000000 -0.152285 0.009054
v -0.000000 0.152285 0.009054
v 0.012343 0.150963 0.009054
v 0.012343 -0.150963 0.009054
v 0.123787 0.032206 0.009054
v 0.123787 0.047467 0.009054
vt 0.891328 0.601730
vt 0.890234 0.600598
vt 0.903475 0.586881
vt 0.904569 0.588013
vt 0.862936 0.676398
vt 0.862936 0.657006
vt 0.866329 0.657006
vt 0.866329 0.676398
vt 0.888767 0.602118
vt 0.881250 0.594342
vt 0.882812 0.592921
vt 0.928887 0.644414
vt 0.928887 0.663805
vt 0.925495 0.663805
vt 0.925495 0.644414
vt 0.925495 0.644414
vt 0.925495 0.663820
vt 0.922102 0.663820
vt 0.922102 0.644414
vt 0.889862 0.603250
vt 0.900207 0.637893
vt 0.900207 0.618486
vt 0.903600 0.618486
vt 0.903600 0.637893
vt 0.903217 0.617065
vt 0.904589 0.615448
vt 0.335510 0.063442
vt 0.335510 0.118641
vt 0.278551 0.118641
vt 0.278551 0.059633
vt 0.278551 0.118641
vt 0.310455 0.118641
vt 0.306775 0.177604
vt 0.278551 0.177604
vt 0.900207 0.648754
vt 0.900207 0.637893
vt 0.903600 0.637893
vt 0.903600 0.648754
vt 0.888395 0.604769
vt 0.875154 0.618486
vt 0.874060 0.617354
vt 0.887301 0.603637
vt 0.901656 0.618486
vt 0.866329 0.657006
vt 0.869721 0.657006
vt 0.869721 0.676398
vt 0.866329 0.676398
vt 0.879879 0.595960
vt 0.873113 0.676398
vt 0.869721 0.676398
vt 0.869721 0.657006
vt 0.873113 0.657006
vt 0.440988 0.160543
vt 0.384029 0.160543
vt 0.384029 0.105344
vt 0.440988 0.101535
vt 0.472891 0.101535
vt 0.472891 0.160499
vt 0.444667 0.160499
vt 0.440988 0.101535
vt 0.903600 0.637893
vt 0.906992 0.637893
vt 0.906992 0.648754
vt 0.903600 0.648754
vt 0.842821 0.591502
vt 0.840827 0.586881
vt 0.850888 0.586881
vt 0.851971 0.591502
vt 0.871802 0.610172
vt 0.870609 0.591502
vt 0.872603 0.586881
vt 0.873914 0.607410
vt 0.841628 0.610172
vt 0.839515 0.607410
vt 0.853496 0.591502
vt 0.852565 0.586881
vt 0.871934 0.612240
vt 0.874060 0.612240
vt 0.841496 0.612240
vt 0.839370 0.612240
vt 0.904589 0.637600
vt 0.904589 0.617071
vt 0.917663 0.617071
vt 0.917663 0.637600
vt 0.887133 0.630637
vt 0.900207 0.630637
vt 0.900207 0.651381
vt 0.887133 0.651381
vt 0.887133 0.628901
vt 0.900207 0.628901
vt 0.887133 0.643846
vt 0.887133 0.648676
vt 0.874060 0.648676
vt 0.874060 0.643846
vt 0.904589 0.612240
vt 0.917663 0.612240
vt 0.887133 0.618486
vt 0.900207 0.618486
vt 0.887133 0.669205
vt 0.874060 0.669205
vt 0.922102 0.644414
vt 0.922102 0.634941
vt 0.926542 0.634941
vt 0.926542 0.644414
vt 0.917663 0.628359
vt 0.917663 0.609688
vt 0.922102 0.609688
vt 0.922102 0.628359
vt 0.922102 0.651165
vt 0.922102 0.669836
vt 0.917663 0.669836
vt 0.917663 0.651165
vt 0.922102 0.633362
vt 0.922102 0.615647
vt 0.926542 0.615647
vt 0.926542 0.633362
vt 0.917663 0.607620
vt 0.922102 0.607620
vt 0.922102 0.649098
vt 0.917663 0.649098
vt 0.842821 0.632979
vt 0.851971 0.632979
vt 0.850888 0.637600
vt 0.840827 0.637600
vt 0.871802 0.614308
vt 0.873914 0.617071
vt 0.872603 0.637600
vt 0.870609 0.632979
vt 0.839515 0.617071
vt 0.841628 0.614308
vt 0.853496 0.632979
vt 0.852565 0.637600
vt 0.904589 0.586881
vt 0.917663 0.586881
vt 0.917663 0.607410
vt 0.904589 0.607410
vt 0.839370 0.658343
vt 0.839370 0.637600
vt 0.852444 0.637600
vt 0.852444 0.658343
vt 0.839370 0.660079
vt 0.852444 0.660079
vt 0.874060 0.639015
vt 0.887133 0.639015
vt 0.839370 0.670494
vt 0.852444 0.670494
vt 0.874060 0.618486
vt 0.887133 0.618486
vt 0.922102 0.586881
vt 0.926542 0.586881
vt 0.926542 0.596354
vt 0.922102 0.596354
vt 0.917663 0.586881
vt 0.922102 0.586881
vt 0.922102 0.605552
vt 0.917663 0.605552
vt 0.922102 0.647030
vt 0.917663 0.647030
vt 0.917663 0.628359
vt 0.922102 0.628359
vt 0.922102 0.597932
vt 0.926542 0.597932
vt 0.926542 0.615647
vt 0.922102 0.615647
vn 0.0000 0.0000 1.0000
vn 0.0000 1.0000 0.0000
vn 0.0000 -1.0000 0.0000
vn 1.0000 -0.0000 0.0000
vn -1.0000 0.0000 0.0000
vn -0.1065 0.9943 0.0000
vn -0.0504 -0.9987 0.0000
vn -0.0504 0.9987 0.0000
vn -0.1065 -0.9943 0.0000
vn 0.1065 0.9943 0.0000
vn 0.1065 -0.9943 0.0000
vn 0.0504 -0.9987 0.0000
vn 0.0504 0.9987 0.0000
usemtl Texture
s off
f 3/1/1 6/2/1 9/3/1 5/4/1
f 9/5/2 6/6/2 7/7/2 8/8/2
f 25/9/1 16/10/1 1/11/1 6/2/1
f 3/12/3 5/13/3 10/14/3 4/15/3
f 29/16/4 21/17/4 19/18/4 18/19/4
f 20/20/1 25/9/1 6/2/1 3/1/1
f 2/21/5 3/22/5 4/23/5 11/24/5
f 15/25/1 20/20/1 3/1/1 2/26/1
f 30/27/1 28/28/1 21/29/1 29/30/1
f 7/31/1 14/32/1 13/33/1 8/34/1
f 6/35/5 1/36/5 14/37/5 7/38/5
f 19/39/1 22/40/1 27/41/1 23/42/1
f 15/25/1 18/43/1 19/39/1 20/20/1
f 27/44/2 26/45/2 24/46/2 23/47/2
f 25/9/1 23/42/1 17/48/1 16/10/1
f 19/49/3 21/50/3 28/51/3 22/52/3
f 4/53/1 10/54/1 12/55/1 11/56/1
f 20/20/1 19/39/1 23/42/1 25/9/1
f 24/57/1 26/58/1 31/59/1 32/60/1
f 23/61/4 24/62/4 32/63/4 17/64/4
f 34/65/1 40/66/1 44/67/1 38/68/1
f 36/69/1 33/70/1 39/71/1 42/72/1
f 34/65/1 35/73/1 41/74/1 40/66/1
f 37/75/1 43/76/1 39/71/1 33/70/1
f 38/68/1 44/67/1 43/76/1 37/75/1
f 59/77/1 36/69/1 42/72/1 67/78/1
f 35/73/1 60/79/1 68/80/1 41/74/1
f 40/81/6 41/82/6 47/83/6 46/84/6
f 43/85/5 49/86/5 45/87/5 39/88/5
f 44/89/5 50/90/5 49/86/5 43/85/5
f 67/91/7 42/92/7 48/93/7 75/94/7
f 41/82/8 68/95/8 76/96/8 47/83/8
f 40/97/5 46/98/5 50/90/5 44/89/5
f 42/92/9 39/99/9 45/100/9 48/93/9
f 34/101/4 38/102/4 56/103/4 52/104/4
f 33/105/10 36/106/10 54/107/10 51/108/10
f 35/109/11 34/110/11 52/111/11 53/112/11
f 37/113/4 33/114/4 51/115/4 55/116/4
f 38/102/4 37/113/4 55/116/4 56/103/4
f 36/106/10 59/117/10 83/118/10 54/107/10
f 60/119/11 35/109/11 53/112/11 84/120/11
f 58/121/1 64/122/1 72/123/1 66/124/1
f 62/125/1 70/126/1 65/127/1 57/128/1
f 58/121/1 66/124/1 69/129/1 61/130/1
f 63/131/1 57/128/1 65/127/1 71/132/1
f 64/122/1 63/131/1 71/132/1 72/123/1
f 59/77/1 67/78/1 70/126/1 62/125/1
f 61/130/1 69/129/1 68/80/1 60/79/1
f 66/133/10 74/134/10 77/135/10 69/136/10
f 71/137/4 65/138/4 73/139/4 79/140/4
f 72/141/4 71/137/4 79/140/4 80/142/4
f 67/91/12 75/94/12 78/143/12 70/144/12
f 69/136/13 77/135/13 76/96/13 68/95/13
f 66/145/4 72/141/4 80/142/4 74/146/4
f 70/144/11 78/143/11 73/147/11 65/148/11
f 58/149/5 82/150/5 88/151/5 64/152/5
f 57/153/6 81/154/6 86/155/6 62/156/6
f 61/157/9 85/158/9 82/159/9 58/160/9
f 63/161/5 87/162/5 81/163/5 57/164/5
f 64/152/5 88/151/5 87/162/5 63/161/5
f 62/156/6 86/155/6 83/118/6 59/117/6
f 60/119/9 84/120/9 85/158/9 61/157/9
