# Blender v2.79 (sub 0) OBJ File: 'Window_Double_Roof.blend'
# www.blender.org
mtllib Window_Double_Roof.mtl
o Window_Double_Roof_Cube.180
v 0.125028 -0.215047 0.050072
v 0.125028 0.180592 0.050072
v 0.013584 0.192529 0.050072
v 0.013584 -0.215047 0.050072
v 0.125028 0.073771 0.050072
v 0.125028 0.089032 0.050072
v 0.125028 -0.094494 0.050072
v 0.125028 -0.110180 0.050072
v 0.152607 -0.249716 0.050072
v 0.152607 0.200542 0.050072
v 0.030072 0.213666 0.050072
v 0.030072 -0.249716 0.050072
v 0.152607 0.083090 0.050072
v 0.152607 0.099870 0.050072
v 0.152607 -0.101921 0.050072
v 0.152607 -0.119169 0.050072
v 0.152607 -0.249716 -0.006363
v 0.152607 0.200542 -0.006363
v 0.030072 0.213666 -0.006363
v 0.030072 -0.249716 -0.006363
v 0.152607 0.083090 -0.006363
v 0.152607 0.099870 -0.006363
v 0.152607 -0.101921 -0.006363
v 0.152607 -0.119169 -0.006363
v 0.125028 -0.215047 0.030908
v 0.125028 0.180592 0.030908
v 0.013584 0.192529 0.030908
v 0.013584 -0.215047 0.030908
v 0.125028 0.073771 0.030908
v 0.125028 0.089032 0.030908
v 0.125028 -0.094494 0.030908
v 0.125028 -0.110180 0.030908
v -0.122547 -0.215047 0.050072
v -0.122547 0.180592 0.050072
v 0.001241 -0.215047 0.050072
v 0.001241 0.193851 0.050072
v -0.011103 0.192529 0.050072
v -0.011103 -0.215047 0.050072
v -0.122547 0.073771 0.050072
v -0.122547 0.089032 0.050072
v -0.122547 -0.094494 0.050072
v -0.122547 -0.110180 0.050072
v -0.150126 -0.249716 0.050072
v -0.150126 0.200542 0.050072
v 0.001241 -0.249716 0.050072
v 0.001241 0.215120 0.050072
v -0.027591 0.213666 0.050072
v -0.027591 -0.249716 0.050072
v -0.150126 0.083090 0.050072
v -0.150126 0.099870 0.050072
v -0.150126 -0.101921 0.050072
v -0.150126 -0.119169 0.050072
v -0.150126 -0.249716 -0.006363
v -0.150126 0.200542 -0.006363
v 0.001241 -0.249716 -0.006363
v 0.001241 0.215120 -0.006363
v -0.027591 0.213666 -0.006363
v -0.027591 -0.249716 -0.006363
v -0.150126 0.083090 -0.006363
v -0.150126 0.099870 -0.006363
v -0.150126 -0.101921 -0.006363
v -0.150126 -0.119169 -0.006363
v -0.122547 -0.215047 0.030908
v -0.122547 0.180592 0.030908
v 0.001241 -0.215047 0.030908
v 0.001241 0.193851 0.030908
v -0.011103 0.192529 0.030908
v -0.011103 -0.215047 0.030908
v -0.122547 0.073771 0.030908
v -0.122547 0.089032 0.030908
v -0.122547 -0.094494 0.030908
v -0.122547 -0.110180 0.030908
v 0.014060 0.195081 0.045177
v 0.014060 -0.232569 0.045177
v 0.014060 0.074612 0.045177
v 0.129808 -0.111992 0.030534
v 0.014060 -0.096080 0.030534
v 0.014060 0.074612 0.030534
v 0.129808 0.074612 0.045177
v 0.014060 0.090093 0.045177
v 0.014060 -0.111992 0.030534
v 0.014060 0.090093 0.030534
v 0.129808 0.090093 0.030534
v 0.129808 0.090093 0.045177
v 0.129808 -0.096080 0.045177
v 0.129808 0.074612 0.030534
v 0.129808 -0.096080 0.030534
v 0.014060 -0.232569 0.030534
v 0.014060 -0.096080 0.045177
v 0.129808 -0.232569 0.030534
v 0.129808 0.182972 0.030534
v 0.014060 0.195081 0.030534
v 0.014060 -0.111992 0.045177
v 0.129808 -0.111992 0.045177
v 0.001240 -0.232569 0.045177
v 0.001240 0.196423 0.045177
v -0.011579 0.195081 0.045177
v -0.011579 -0.232569 0.045177
v -0.011580 0.074612 0.045177
v -0.127327 -0.111992 0.030534
v -0.011580 -0.096080 0.030534
v 0.001240 0.074612 0.045177
v -0.011580 0.074612 0.030534
v -0.127327 0.074612 0.045177
v -0.011580 0.090093 0.045177
v -0.011580 -0.111992 0.030534
v -0.011580 0.090093 0.030534
v 0.001240 0.090093 0.045177
v -0.127327 0.090093 0.030534
v -0.127327 0.090093 0.045177
v -0.127327 -0.096080 0.045177
v -0.127327 0.074612 0.030534
v 0.001240 -0.096080 0.045177
v -0.127327 -0.096080 0.030534
v -0.011579 -0.232569 0.030534
v -0.011580 -0.096080 0.045177
v -0.127327 -0.232569 0.030534
v 0.001240 -0.111992 0.045177
v -0.127327 0.182972 0.030534
v -0.011579 0.195081 0.030534
v -0.011580 -0.111992 0.045177
v -0.127327 -0.111992 0.045177
v 0.180125 0.295631 0.047161
v -0.180125 0.295631 0.047161
v 0.180125 0.295631 0.015102
v -0.180125 0.295631 0.015102
v -0.180125 0.138341 0.160447
v 0.180125 0.138341 0.160447
v 0.180125 0.138341 0.015102
v -0.180125 0.138341 0.015102
v -0.128661 0.295631 0.047161
v -0.077196 0.295631 0.047161
v -0.025732 0.295631 0.047161
v 0.025732 0.295631 0.047161
v 0.077196 0.295631 0.047161
v 0.128661 0.295631 0.047161
v -0.128661 0.295631 0.015102
v -0.077196 0.295631 0.015102
v -0.025732 0.295631 0.015102
v 0.025732 0.295631 0.015102
v 0.077196 0.295631 0.015102
v 0.128661 0.295631 0.015102
v -0.128661 0.138341 0.160447
v -0.077196 0.138341 0.160447
v -0.025732 0.138341 0.160447
v 0.025732 0.138341 0.160447
v 0.077196 0.138341 0.160447
v 0.128661 0.138341 0.160447
v 0.158231 -0.295631 0.076392
v 0.158231 -0.236019 0.076392
v 0.158231 -0.295631 -0.015074
v 0.158231 -0.236019 -0.015074
v -0.154621 -0.295631 0.076392
v -0.154621 -0.236019 0.076392
v -0.154621 -0.295631 -0.015074
v -0.154621 -0.236019 -0.015074
v 0.158231 -0.285423 0.076392
v 0.158231 -0.285423 -0.015074
v -0.154621 -0.285423 -0.015074
v -0.154621 -0.285423 0.076392
v -0.154621 -0.285423 0.089164
v -0.154621 -0.295631 0.089164
v 0.158231 -0.295631 0.089164
v 0.158231 -0.285423 0.089164
vt 0.833108 0.570664
vt 0.833108 0.581009
vt 0.830042 0.579785
vt 0.830042 0.568410
vt 0.845497 0.615366
vt 0.843664 0.619284
vt 0.830042 0.619284
vt 0.833108 0.615366
vt 0.843664 0.566927
vt 0.845497 0.569315
vt 0.833108 0.601745
vt 0.833108 0.603518
vt 0.830042 0.604533
vt 0.830042 0.602585
vt 0.833108 0.582734
vt 0.830042 0.581681
vt 0.846869 0.615366
vt 0.846869 0.619284
vt 0.846869 0.566763
vt 0.846869 0.569166
vt 0.921758 0.638331
vt 0.915485 0.638331
vt 0.915485 0.624486
vt 0.921758 0.624486
vt 0.909211 0.620825
vt 0.909211 0.618876
vt 0.915485 0.618876
vt 0.915485 0.620825
vt 0.909211 0.643625
vt 0.909211 0.641729
vt 0.915485 0.641729
vt 0.915485 0.643625
vt 0.919016 0.583865
vt 0.912742 0.583865
vt 0.912742 0.580608
vt 0.919016 0.580608
vt 0.909211 0.604126
vt 0.915485 0.604126
vt 0.915485 0.621228
vt 0.921758 0.621228
vt 0.909211 0.654999
vt 0.915485 0.654999
vt 0.912742 0.566763
vt 0.919016 0.566763
vt 0.925322 0.604126
vt 0.927453 0.604126
vt 0.927453 0.614471
vt 0.925322 0.614471
vt 0.924508 0.566763
vt 0.926638 0.566763
vt 0.926638 0.579355
vt 0.924508 0.579355
vt 0.915485 0.653712
vt 0.917615 0.653712
vt 0.917615 0.666304
vt 0.915485 0.666304
vt 0.925322 0.635207
vt 0.927453 0.635207
vt 0.927453 0.636980
vt 0.925322 0.636980
vt 0.927453 0.616195
vt 0.925322 0.616195
vt 0.926638 0.580749
vt 0.924508 0.580749
vt 0.927453 0.648828
vt 0.925322 0.648828
vt 0.915485 0.652317
vt 0.917615 0.652317
vt 0.860630 0.570664
vt 0.863696 0.568410
vt 0.863696 0.579785
vt 0.860630 0.581009
vt 0.848241 0.615366
vt 0.860630 0.615366
vt 0.863696 0.619284
vt 0.850074 0.619284
vt 0.848241 0.569315
vt 0.850074 0.566927
vt 0.860630 0.601745
vt 0.863696 0.602585
vt 0.863696 0.604533
vt 0.860630 0.603518
vt 0.863696 0.581681
vt 0.860630 0.582734
vt 0.921758 0.604126
vt 0.921758 0.617971
vt 0.915485 0.617971
vt 0.915485 0.604126
vt 0.902937 0.638300
vt 0.909211 0.638300
vt 0.909211 0.640249
vt 0.902937 0.640249
vt 0.902937 0.615501
vt 0.909211 0.615501
vt 0.909211 0.617397
vt 0.902937 0.617397
vt 0.919016 0.587123
vt 0.912742 0.587123
vt 0.909211 0.654999
vt 0.902937 0.654999
vt 0.902937 0.604126
vt 0.909211 0.604126
vt 0.919016 0.600968
vt 0.912742 0.600968
vt 0.929583 0.604126
vt 0.929583 0.614471
vt 0.927453 0.614471
vt 0.927453 0.604126
vt 0.924508 0.594736
vt 0.924508 0.582144
vt 0.926638 0.582144
vt 0.926638 0.594736
vt 0.915485 0.650923
vt 0.915485 0.638331
vt 0.917615 0.638331
vt 0.917615 0.650923
vt 0.929583 0.635207
vt 0.929583 0.636980
vt 0.927453 0.636980
vt 0.927453 0.635207
vt 0.929583 0.616195
vt 0.927453 0.616195
vt 0.929583 0.648828
vt 0.927453 0.648828
vt 0.874170 0.579088
vt 0.864888 0.588144
vt 0.863696 0.586883
vt 0.872979 0.577826
vt 0.881181 0.658453
vt 0.879554 0.658453
vt 0.879554 0.644830
vt 0.881181 0.644830
vt 0.875367 0.644830
vt 0.876995 0.644830
vt 0.876995 0.657908
vt 0.875367 0.657908
vt 0.874007 0.576823
vt 0.864896 0.569268
vt 0.865821 0.568156
vt 0.857405 0.661911
vt 0.855777 0.661911
vt 0.855777 0.648833
vt 0.857405 0.648833
vt 0.920871 0.651409
vt 0.919243 0.651409
vt 0.919243 0.638331
vt 0.920871 0.638331
vt 0.888339 0.591998
vt 0.887311 0.593001
vt 0.875198 0.578085
vt 0.876995 0.644830
vt 0.878623 0.644830
vt 0.878623 0.657908
vt 0.876995 0.657908
vt 0.889564 0.593295
vt 0.888536 0.594298
vt 0.879253 0.603354
vt 0.878028 0.602057
vt 0.887808 0.639474
vt 0.889436 0.639474
vt 0.889436 0.658760
vt 0.887808 0.658760
vt 0.356561 0.148516
vt 0.336522 0.148516
vt 0.336522 0.127300
vt 0.356561 0.127300
vt 0.411828 0.151433
vt 0.411828 0.131067
vt 0.427908 0.131067
vt 0.430004 0.151433
vt 0.445273 0.047868
vt 0.425235 0.047868
vt 0.425235 0.017833
vt 0.445273 0.017833
vt 0.844537 0.650679
vt 0.846165 0.650679
vt 0.846165 0.662541
vt 0.844537 0.662541
vt 0.898847 0.603123
vt 0.897819 0.604126
vt 0.876227 0.577082
vt 0.875035 0.575820
vt 0.884317 0.566763
vt 0.885509 0.568025
vt 0.889436 0.653098
vt 0.889436 0.639474
vt 0.891064 0.639474
vt 0.891064 0.653098
vt 0.857405 0.661911
vt 0.857405 0.648833
vt 0.859032 0.648833
vt 0.859032 0.661911
vt 0.866952 0.567262
vt 0.923386 0.644830
vt 0.923386 0.657908
vt 0.921758 0.657908
vt 0.921758 0.644830
vt 0.860660 0.661911
vt 0.860660 0.648833
vt 0.862288 0.648833
vt 0.862288 0.661911
vt 0.889367 0.590995
vt 0.859032 0.661911
vt 0.859032 0.648833
vt 0.860660 0.648833
vt 0.860660 0.661911
vt 0.890592 0.592292
vt 0.898650 0.581938
vt 0.899875 0.583235
vt 0.917615 0.657617
vt 0.917615 0.638331
vt 0.919243 0.638331
vt 0.919243 0.657617
vt 0.425235 0.069084
vt 0.425235 0.047868
vt 0.445273 0.047868
vt 0.445273 0.069084
vt 0.368893 0.139407
vt 0.387069 0.139407
vt 0.384973 0.159773
vt 0.368893 0.159773
vt 0.316484 0.157334
vt 0.316484 0.127300
vt 0.336522 0.127300
vt 0.336522 0.157334
vt 0.842909 0.662541
vt 0.842909 0.650679
vt 0.844537 0.650679
vt 0.844537 0.662541
vt 0.899875 0.602120
vt 0.883652 0.924028
vt 0.883652 0.931852
vt 0.860124 0.931852
vt 0.860124 0.924028
vt 0.943047 0.924028
vt 0.943047 0.931852
vt 0.938251 0.931852
vt 0.938251 0.924028
vt 0.836582 0.921391
vt 0.814841 0.921391
vt 0.831786 0.897478
vt 0.836582 0.897478
vt 0.836582 0.897478
vt 0.858323 0.897478
vt 0.858323 0.921391
vt 0.853528 0.921391
vt 0.943047 0.877082
vt 0.943047 0.884906
vt 0.938251 0.884906
vt 0.938251 0.877082
vt 0.191667 0.108963
vt 0.191667 0.118618
vt 0.185750 0.118618
vt 0.185750 0.108963
vt 0.943047 0.892731
vt 0.943047 0.900555
vt 0.938251 0.900555
vt 0.938251 0.892731
vt 0.191667 0.128272
vt 0.191667 0.137927
vt 0.185750 0.137927
vt 0.185750 0.128272
vt 0.943047 0.908379
vt 0.943047 0.916203
vt 0.938251 0.916203
vt 0.938251 0.908379
vt 0.191667 0.147581
vt 0.191667 0.157236
vt 0.185750 0.157236
vt 0.185750 0.147581
vt 0.883652 0.877082
vt 0.883652 0.884906
vt 0.860124 0.884906
vt 0.860124 0.877082
vt 0.118379 0.108963
vt 0.118379 0.118618
vt 0.089348 0.118618
vt 0.089348 0.108963
vt 0.883652 0.892731
vt 0.883652 0.900555
vt 0.860124 0.900555
vt 0.860124 0.892731
vt 0.118379 0.128272
vt 0.118379 0.137927
vt 0.089348 0.137927
vt 0.089348 0.128272
vt 0.883652 0.908379
vt 0.883652 0.916203
vt 0.860124 0.916203
vt 0.860124 0.908379
vt 0.118379 0.147581
vt 0.118379 0.157236
vt 0.089348 0.157236
vt 0.089348 0.147581
vt 0.891042 0.926587
vt 0.891042 0.940493
vt 0.883652 0.940493
vt 0.883652 0.926587
vt 0.856858 0.921391
vt 0.856858 0.935297
vt 0.849468 0.935297
vt 0.849468 0.921391
vt 0.934561 0.874371
vt 0.934561 0.826808
vt 0.941951 0.826808
vt 0.941951 0.874371
vt 0.883652 0.877082
vt 0.897334 0.877082
vt 0.897334 0.924646
vt 0.883652 0.924646
vt 0.912926 0.924646
vt 0.899244 0.924646
vt 0.899244 0.877082
vt 0.912926 0.877082
vt 0.858385 0.935297
vt 0.858385 0.937238
vt 0.856858 0.937238
vt 0.858385 0.921391
vt 0.892569 0.926587
vt 0.892569 0.940493
vt 0.858598 0.945041
vt 0.858598 0.897478
vt 0.860124 0.897478
vt 0.860124 0.945041
vt 0.946728 0.874371
vt 0.944818 0.874371
vt 0.944818 0.826808
vt 0.946728 0.826808
vt 0.891042 0.924646
vt 0.892569 0.924646
vt 0.899244 0.877082
vt 0.899244 0.924646
vn -0.0000 0.0000 1.0000
vn 0.1065 0.9943 0.0000
vn 1.0000 0.0000 0.0000
vn 0.0000 -1.0000 0.0000
vn 0.0504 0.9987 0.0000
vn -1.0000 0.0000 0.0000
vn 0.0000 1.0000 0.0000
vn -0.1065 -0.9943 0.0000
vn -0.1065 0.9943 0.0000
vn -0.0504 0.9987 0.0000
vn 0.1065 -0.9943 0.0000
vn 0.0000 0.5844 0.8114
usemtl Texture
s off
f 2/1/1 6/2/1 14/3/1 10/4/1
f 4/5/1 12/6/1 9/7/1 1/8/1
f 2/1/1 10/4/1 11/9/1 3/10/1
f 7/11/1 8/12/1 16/13/1 15/14/1
f 6/2/1 5/15/1 13/16/1 14/3/1
f 35/17/1 45/18/1 12/6/1 4/5/1
f 8/12/1 1/8/1 9/7/1 16/13/1
f 5/15/1 7/11/1 15/14/1 13/16/1
f 3/10/1 11/9/1 46/19/1 36/20/1
f 10/21/2 18/22/2 19/23/2 11/24/2
f 15/25/3 16/26/3 24/27/3 23/28/3
f 14/29/3 13/30/3 21/31/3 22/32/3
f 45/33/4 55/34/4 20/35/4 12/36/4
f 16/26/3 9/37/3 17/38/3 24/27/3
f 13/30/3 15/25/3 23/28/3 21/31/3
f 11/24/5 19/23/5 56/39/5 46/40/5
f 10/41/3 14/29/3 22/32/3 18/42/3
f 12/36/4 20/35/4 17/43/4 9/44/4
f 2/45/6 26/46/6 30/47/6 6/48/6
f 1/49/7 25/50/7 28/51/7 4/52/7
f 3/53/8 27/54/8 26/55/8 2/56/8
f 7/57/6 31/58/6 32/59/6 8/60/6
f 6/48/6 30/47/6 29/61/6 5/62/6
f 4/52/7 28/51/7 65/63/7 35/64/7
f 8/60/6 32/59/6 25/65/6 1/66/6
f 5/62/6 29/61/6 31/58/6 7/57/6
f 36/67/8 66/68/8 27/54/8 3/53/8
f 34/69/1 44/70/1 50/71/1 40/72/1
f 38/73/1 33/74/1 43/75/1 48/76/1
f 34/69/1 37/77/1 47/78/1 44/70/1
f 41/79/1 51/80/1 52/81/1 42/82/1
f 40/72/1 50/71/1 49/83/1 39/84/1
f 35/17/1 38/73/1 48/76/1 45/18/1
f 42/82/1 52/81/1 43/75/1 33/74/1
f 39/84/1 49/83/1 51/80/1 41/79/1
f 37/77/1 36/20/1 46/19/1 47/78/1
f 44/85/9 47/86/9 57/87/9 54/88/9
f 51/89/6 61/90/6 62/91/6 52/92/6
f 50/93/6 60/94/6 59/95/6 49/96/6
f 45/33/4 48/97/4 58/98/4 55/34/4
f 52/92/6 62/91/6 53/99/6 43/100/6
f 49/96/6 59/95/6 61/90/6 51/89/6
f 47/86/10 46/40/10 56/39/10 57/87/10
f 44/101/6 54/102/6 60/94/6 50/93/6
f 48/97/4 43/103/4 53/104/4 58/98/4
f 34/105/3 40/106/3 70/107/3 64/108/3
f 33/109/7 38/110/7 68/111/7 63/112/7
f 37/113/11 34/114/11 64/115/11 67/116/11
f 41/117/3 42/118/3 72/119/3 71/120/3
f 40/106/3 39/121/3 69/122/3 70/107/3
f 38/110/7 35/64/7 65/63/7 68/111/7
f 42/118/3 33/123/3 63/124/3 72/119/3
f 39/121/3 41/117/3 71/120/3 69/122/3
f 36/67/11 37/113/11 67/116/11 66/68/11
f 75/125/1 79/126/1 84/127/1 80/128/1
f 74/129/3 88/130/3 81/131/3 93/132/3
f 84/133/7 83/134/7 82/135/7 80/136/7
f 108/137/1 80/128/1 73/138/1 96/139/1
f 75/140/4 78/141/4 86/142/4 79/143/4
f 93/144/4 81/145/4 76/146/4 94/147/4
f 113/148/1 89/149/1 75/125/1 102/150/1
f 85/151/7 87/152/7 77/153/7 89/154/7
f 102/150/1 75/125/1 80/128/1 108/137/1
f 118/155/1 93/156/1 89/149/1 113/148/1
f 93/156/1 94/157/1 85/158/1 89/149/1
f 89/159/3 77/160/3 78/161/3 75/162/3
f 88/163/1 90/164/1 76/165/1 81/166/1
f 82/167/1 83/168/1 91/169/1 92/170/1
f 77/171/1 87/172/1 86/173/1 78/174/1
f 80/175/3 82/176/3 92/177/3 73/178/3
f 95/179/1 74/180/1 93/156/1 118/155/1
f 99/181/1 105/182/1 110/183/1 104/184/1
f 98/185/6 121/186/6 106/187/6 115/188/6
f 110/189/7 105/190/7 107/191/7 109/192/7
f 108/137/1 96/139/1 97/193/1 105/182/1
f 99/194/4 104/195/4 112/196/4 103/197/4
f 121/198/4 122/199/4 100/200/4 106/201/4
f 113/148/1 102/150/1 99/181/1 116/202/1
f 111/203/7 116/204/7 101/205/7 114/206/7
f 102/150/1 108/137/1 105/182/1 99/181/1
f 118/155/1 113/148/1 116/202/1 121/207/1
f 121/207/1 116/202/1 111/208/1 122/209/1
f 116/210/6 99/211/6 103/212/6 101/213/6
f 115/214/1 106/215/1 100/216/1 117/217/1
f 107/218/1 120/219/1 119/220/1 109/221/1
f 101/222/1 103/223/1 112/224/1 114/225/1
f 105/226/6 97/227/6 120/228/6 107/229/6
f 95/179/1 118/155/1 121/207/1 98/230/1
f 148/231/12 128/232/12 123/233/12 136/234/12
f 137/235/7 126/236/7 124/237/7 131/238/7
f 130/239/6 127/240/6 124/241/6 126/242/6
f 128/243/3 129/244/3 125/245/3 123/246/3
f 125/247/7 142/248/7 136/249/7 123/250/7
f 142/251/7 141/252/7 135/253/7 136/254/7
f 141/255/7 140/256/7 134/257/7 135/258/7
f 140/259/7 139/260/7 133/261/7 134/262/7
f 139/263/7 138/264/7 132/265/7 133/266/7
f 138/267/7 137/268/7 131/269/7 132/270/7
f 127/271/12 143/272/12 131/273/12 124/274/12
f 143/275/12 144/276/12 132/277/12 131/278/12
f 144/279/12 145/280/12 133/281/12 132/282/12
f 145/283/12 146/284/12 134/285/12 133/286/12
f 146/287/12 147/288/12 135/289/12 134/290/12
f 147/291/12 148/292/12 136/293/12 135/294/12
f 157/295/3 158/296/3 152/297/3 150/298/3
f 159/299/6 160/300/6 154/301/6 156/302/6
f 160/303/1 157/304/1 150/305/1 154/306/1
f 151/307/4 149/308/4 153/309/4 155/310/4
f 156/311/7 154/312/7 150/313/7 152/314/7
f 153/315/6 162/316/6 161/317/6 160/300/6
f 155/318/6 153/315/6 160/300/6 159/299/6
f 149/319/3 151/320/3 158/296/3 157/295/3
f 162/321/1 163/322/1 164/323/1 161/324/1
f 160/325/7 161/326/7 164/327/7 157/328/7
f 157/295/3 164/329/3 163/330/3 149/319/3
f 149/308/4 163/331/4 162/332/4 153/309/4
